<svg width="32" height="32" viewBox="0 0 32 32" fill="none" xmlns="http://www.w3.org/2000/svg">
<rect width="32" height="32" rx="8" fill="#9DD1B2"/>
<path d="M20.24 11.76C19.07 10.59 17.54 10 16 10V16L11.76 20.24C14.1 22.58 17.9 22.58 20.25 20.24C22.59 17.9 22.59 14.1 20.24 11.76ZM16 6C10.48 6 6 10.48 6 16C6 21.52 10.48 26 16 26C21.52 26 26 21.52 26 16C26 10.48 21.52 6 16 6ZM16 24C11.58 24 8 20.42 8 16C8 11.58 11.58 8 16 8C20.42 8 24 11.58 24 16C24 20.42 20.42 24 16 24Z" fill="#FCFCFC"/>
</svg>
