<svg width="532" height="419" viewBox="0 0 532 419" fill="none" xmlns="http://www.w3.org/2000/svg">
<g opacity="0.8">
<circle cx="239.5" cy="191.5" r="89" stroke="#757B75"/>
<circle cx="239.5" cy="191.5" r="158" stroke="#757B75"/>
<path d="M125.175 385.295C129.581 381.832 133.987 378.368 138.418 375.364C140.658 374.321 143.433 374.629 145.824 376.338C149.767 381.184 152.818 386.539 155.87 391.893C155.97 393.729 155.155 395.614 153.831 396.607C146.676 400.221 138.453 401.133 130.996 399.241C123.997 397.324 122.32 391.894 125.175 385.295Z" fill="#9DD1B2"/>
<path d="M293.232 239.724C297.638 236.261 302.044 232.798 306.475 229.794C308.715 228.75 311.49 229.058 313.881 230.768C317.824 235.614 320.875 240.968 323.927 246.323C324.028 248.158 323.212 250.044 321.888 251.037C314.733 254.651 306.51 255.562 299.053 253.671C292.054 251.754 290.377 246.324 293.232 239.724Z" fill="#9DD1B2"/>
<path d="M395.557 287.03C389.016 285.088 387.339 279.658 390.194 273.058C394.6 269.595 399.006 266.132 403.437 263.128C405.677 262.084 408.452 262.392 410.843 264.102C414.786 268.948 417.837 274.302 420.889 279.657C420.99 281.493 420.174 283.378 418.85 284.371C411.236 288.01 403.014 288.922 395.557 287.03Z" fill="#9DD1B2"/>
<path d="M385.899 387.42C390.305 383.957 394.711 380.493 399.142 377.489C401.382 376.446 404.157 376.754 406.549 378.463C410.491 383.309 413.543 388.664 416.594 394.019C416.695 395.854 415.879 397.74 414.555 398.733C407.4 402.347 399.177 403.258 391.72 401.366C385.179 399.424 383.044 394.019 385.899 387.42Z" fill="#9DD1B2"/>
<path d="M338.036 402.932C342.442 399.469 346.848 396.006 351.279 393.002C353.52 391.958 356.294 392.266 358.686 393.976C362.628 398.822 365.68 404.176 368.731 409.531C368.832 411.366 368.016 413.252 366.692 414.245C359.537 417.859 351.314 418.77 343.857 416.879C337.317 414.937 335.182 409.532 338.036 402.932Z" fill="#9DD1B2"/>
<path d="M85.761 232.161C85.7358 231.702 85.7358 231.702 85.7107 231.244C86.4508 227.982 89.5323 225.512 93.2483 226.228C96.9391 226.486 100.222 227.686 103.963 228.861C113.787 232.004 114.321 233.355 109.326 242.833C105.862 246.705 101.914 250.143 97.9414 253.122C96.1842 254.599 93.9183 255.183 91.6021 254.85C86.9697 254.184 83.5105 249.772 84.1751 245.134C83.9485 241.004 84.613 236.366 85.761 232.161Z" fill="#9DD1B2"/>
<path d="M243.147 323.079C243.122 322.621 243.097 322.162 243.555 322.137C244.32 319.333 247.427 317.322 250.227 318.089C254.884 319.214 259.542 320.339 263.766 321.948C264.225 321.923 264.708 322.356 264.708 322.356C266.158 323.657 266.742 325.926 265.443 327.378C264.602 328.805 263.761 330.232 263.354 331.174L263.837 331.608C260.806 334.996 257.749 337.925 254.21 340.42C252.911 341.872 250.645 342.456 248.787 342.098C244.638 341.866 241.687 338.346 241.919 334.191C241.743 330.98 241.974 326.825 243.147 323.079Z" fill="#9DD1B2"/>
<path d="M165.102 209.261C168.641 206.766 172.69 205.163 177.246 204.453C179.537 204.327 181.904 205.578 182.921 207.363C184.548 211.875 186.199 216.847 186.476 221.894C186.527 222.811 184.387 225.69 183.445 225.282C177.463 225.15 171.456 224.559 168.224 224.276C160.132 219.198 159.779 212.775 165.102 209.261Z" fill="#9DD1B2"/>
<path d="M21.8684 163.127C24.4113 167.589 26.9541 172.052 29.0639 176.998C30.1062 179.242 30.2321 181.536 28.9834 183.905C26.919 188.16 21.9795 190.272 17.7549 188.663C13.5304 187.054 9.30582 185.445 5.05607 183.378C5.05607 183.378 4.59788 183.403 4.5727 182.944C1.26454 181.285 0.146688 177.665 1.80324 174.352C3.00158 171.065 5.11632 167.728 7.25625 164.849C12.7345 155.805 14.1091 155.73 21.8684 163.127Z" fill="#9DD1B2"/>
<path d="M339.762 104.93C344.802 104.654 349.842 104.377 354.475 105.043C355.9 105.886 356.892 107.212 356.992 109.047C355.003 114.678 353.015 120.31 351.816 123.597C344.812 129.964 338.78 128.914 337.053 122.567C335.91 118.487 335.2 113.925 335.431 109.77C335.764 107.451 337.496 105.515 339.762 104.93Z" fill="#9DD1B2"/>
<path d="M42.5168 42.7156C47.557 42.439 52.5972 42.1624 57.2296 42.8285C58.6545 43.6707 59.6465 44.9968 59.7472 46.832C57.7584 52.4634 55.7695 58.0948 54.5712 61.3818C47.5674 67.7487 41.5353 66.6992 39.8081 60.3514C38.6651 56.2724 37.9551 51.7095 38.1866 47.5551C38.5189 45.236 40.251 43.3002 42.5168 42.7156Z" fill="#9DD1B2"/>
<path d="M164.211 126.031C169.785 127.106 174.926 128.664 180.092 130.682C182.459 131.932 183.501 134.176 183.652 136.929C182.147 142.994 179.7 148.651 177.253 154.307C175.954 155.759 174.146 156.319 172.263 155.502C165.188 152.208 159.337 146.087 156.185 138.897C153.975 132.115 156.93 127.351 164.211 126.031Z" fill="#9DD1B2"/>
<path d="M198.014 22.0386C196.639 22.114 194.831 22.6734 193.457 22.7488L193.482 23.2077C189.333 22.9752 184.701 22.309 180.501 21.1589C178.643 20.8007 176.735 19.5249 175.718 17.74C173.683 14.1701 174.806 9.50657 177.913 7.49531C180.994 5.02524 184.559 2.98884 188.149 1.41123C188.608 1.38608 188.582 0.927319 189.041 0.902172C191.739 -0.16633 195.022 1.03404 196.09 3.73659C198.149 7.76527 199.776 12.2779 200.944 16.8156C202.011 19.5182 200.738 21.4289 198.014 22.0386Z" fill="#9DD1B2"/>
<path d="M508.359 48.4846C511.44 46.0146 515.005 43.9782 518.595 42.4006C519.054 42.3754 519.028 41.9166 519.487 41.8914C522.185 40.8229 525.468 42.0233 526.536 44.7258C528.595 48.7545 530.222 53.2672 531.39 57.805C531.999 60.5327 530.725 62.4434 527.976 62.5943C526.602 62.6697 524.794 63.2291 523.419 63.3045L523.444 63.7634C519.295 63.5309 514.663 62.8647 510.464 61.7146C508.606 61.3564 506.697 60.0806 505.68 58.2957C503.671 55.1846 504.794 50.5211 508.359 48.4846Z" fill="#9DD1B2"/>
</g>
</svg>
