<svg width="246" height="88" viewBox="0 0 246 88" fill="none" xmlns="http://www.w3.org/2000/svg">
<path d="M97.1665 36.9851H108.946V40.5899H102.367V48.9305H107.744V52.5706H102.367V65.6116H97.1665V36.9851Z" fill="#131413"/>
<path d="M116.301 36.9851H121.891L127.621 65.6116H122.775L121.643 59.0027H116.655L115.488 65.6116H110.571L116.301 36.9851ZM121.077 55.6807L119.131 43.6646L117.186 55.6807H121.077Z" fill="#131413"/>
<path d="M138.687 66.0003C136.092 66.0003 134.147 65.2699 132.85 63.8092C131.576 62.3484 130.881 60.169 130.763 57.271L135.255 56.3875C135.326 58.2017 135.609 59.5918 136.104 60.5578C136.623 61.5002 137.425 61.9714 138.51 61.9714C139.312 61.9714 139.901 61.7358 140.278 61.2646C140.679 60.7698 140.88 60.1101 140.88 59.2855C140.88 58.1545 140.62 57.2003 140.102 56.4228C139.606 55.6218 138.816 54.75 137.731 53.8076L134.123 50.6622C133.015 49.7197 132.178 48.7066 131.612 47.6228C131.069 46.539 130.798 45.2432 130.798 43.7353C130.798 41.497 131.447 39.7653 132.744 38.5401C134.064 37.2914 135.88 36.667 138.191 36.667C140.668 36.667 142.436 37.3738 143.498 38.7875C144.582 40.1776 145.207 42.0624 145.372 44.4421L140.88 45.2196C140.809 43.6646 140.585 42.4983 140.208 41.7208C139.854 40.9197 139.146 40.5192 138.085 40.5192C137.331 40.5192 136.741 40.7784 136.316 41.2967C135.892 41.7915 135.68 42.4276 135.68 43.2051C135.68 44.124 135.857 44.9015 136.21 45.5377C136.588 46.1503 137.189 46.81 138.014 47.5168L141.587 50.6622C142.932 51.8167 143.981 53.0536 144.736 54.373C145.49 55.6924 145.868 57.2239 145.868 58.9674C145.868 60.3339 145.561 61.5473 144.948 62.6076C144.358 63.6678 143.521 64.5042 142.436 65.1168C141.351 65.7058 140.102 66.0003 138.687 66.0003Z" fill="#131413"/>
<path d="M152.921 40.8373H148.358V36.9851H162.614V40.8373H158.156V65.6116H152.921V40.8373Z" fill="#131413"/>
<path d="M173.543 66.0003C170.949 66.0003 169.003 65.2699 167.706 63.8092C166.433 62.3484 165.737 60.169 165.619 57.271L170.112 56.3875C170.182 58.2017 170.465 59.5918 170.961 60.5578C171.479 61.5002 172.281 61.9714 173.366 61.9714C174.168 61.9714 174.758 61.7358 175.135 61.2646C175.536 60.7698 175.736 60.1101 175.736 59.2855C175.736 58.1545 175.477 57.2003 174.958 56.4228C174.463 55.6218 173.673 54.75 172.588 53.8076L168.98 50.6622C167.871 49.7197 167.034 48.7066 166.468 47.6228C165.926 46.539 165.654 45.2432 165.654 43.7353C165.654 41.497 166.303 39.7653 167.6 38.5401C168.921 37.2914 170.737 36.667 173.048 36.667C175.524 36.667 177.293 37.3738 178.354 38.7875C179.439 40.1776 180.064 42.0624 180.229 44.4421L175.736 45.2196C175.665 43.6646 175.441 42.4983 175.064 41.7208C174.71 40.9197 174.003 40.5192 172.942 40.5192C172.187 40.5192 171.597 40.7784 171.173 41.2967C170.748 41.7915 170.536 42.4276 170.536 43.2051C170.536 44.124 170.713 44.9015 171.067 45.5377C171.444 46.1503 172.045 46.81 172.871 47.5168L176.444 50.6622C177.788 51.8167 178.837 53.0536 179.592 54.373C180.347 55.6924 180.724 57.2239 180.724 58.9674C180.724 60.3339 180.417 61.5473 179.804 62.6076C179.215 63.6678 178.378 64.5042 177.293 65.1168C176.208 65.7058 174.958 66.0003 173.543 66.0003Z" fill="#131413"/>
<path d="M183.886 36.9851H188.237L190.607 55.5393L193.579 37.0557H197.116L200.194 55.5393L202.529 36.9851H206.844L202.847 65.6116H198.602L195.418 46.4212L192.27 65.6116H187.919L183.886 36.9851Z" fill="#131413"/>
<path d="M214.618 36.9851H220.207L225.938 65.6116H221.091L219.959 59.0027H214.972L213.804 65.6116H208.887L214.618 36.9851ZM219.393 55.6807L217.448 43.6646L215.502 55.6807H219.393Z" fill="#131413"/>
<path d="M229.925 36.9851H238.344C243.226 36.9851 245.667 39.6946 245.667 45.1136C245.667 50.297 243.108 52.8887 237.99 52.8887H235.125V65.6116H229.925V36.9851ZM237.141 49.2132C238.556 49.2132 239.511 48.9187 240.007 48.3296C240.502 47.7171 240.749 46.6333 240.749 45.0782C240.749 43.9473 240.667 43.0873 240.502 42.4983C240.337 41.8857 239.995 41.4263 239.476 41.12C238.981 40.8137 238.202 40.6606 237.141 40.6606H235.125V49.2132H237.141Z" fill="#131413"/>
<g clip-path="url(#clip0)">
<path d="M118.897 62.162C118.916 62.1231 118.916 62.0648 118.935 62.0259L57.3195 41.9393C57.3195 41.9004 57.3387 41.881 57.3387 41.8421L74.602 46.2755C74.5635 45.8283 74.4864 45.4977 74.4864 45.1866C74.4864 44.4283 74.1203 44.0783 73.4267 43.8449C71.9431 43.3394 70.4789 42.756 69.0146 42.1921C67.5117 41.6282 66.0089 41.0449 64.5061 40.481C64.5253 40.4421 64.5253 40.4032 64.5446 40.3643L99.8996 50.4756C99.9189 50.4367 99.9189 50.3979 99.9382 50.359L73.446 39.956C73.8699 39.5087 74.1974 39.1198 74.5635 38.7698C76.6828 36.6892 78.5903 34.4336 80.2858 32.003C81.7501 29.9029 83.0217 27.7057 83.6575 25.1973C84.4667 22.1055 85.0255 18.9555 85.064 15.7471C85.0833 14.172 85.5842 12.6553 86.509 11.3914C87.2412 10.3414 88.0504 9.34969 88.7825 8.29966C89.534 7.23019 89.2064 6.31629 87.9348 5.92739C86.798 5.53849 85.5457 5.71349 84.5438 6.41351C82.9254 7.56076 81.5574 9.01913 81.2491 11.0608C80.9794 12.9664 80.806 14.8915 80.7675 16.8165C80.6326 20.5305 80.1124 24.1278 78.2627 27.3945C76.4516 30.5446 74.2552 33.4614 71.7697 36.0864C70.2669 37.6809 68.5714 38.342 66.5098 38.0504C64.2363 37.7392 61.9628 37.3309 59.7086 36.8837C53.5624 35.717 47.4162 34.5114 41.2893 33.3058C40.8461 33.2086 40.4415 32.9752 40.114 32.6447C39.613 32.0613 38.9387 31.653 38.2066 31.478C37.6863 31.3613 37.1854 31.1669 36.6652 30.9919C35.1816 30.5057 33.6981 30.0196 32.1952 29.5335C32.1952 29.514 32.2145 29.4946 32.2145 29.4752L51.5393 34.0058C51.5586 33.9475 51.5779 33.8697 51.5971 33.8114L32.4457 27.6279C32.465 27.589 32.465 27.5307 32.4842 27.4918L36.434 28.0946C35.6248 27.3945 34.7385 26.889 33.91 26.3056C33.0815 25.7223 32.176 25.4112 31.2126 25.5278C29.5749 25.7417 27.9372 26.0917 26.2995 26.3445C25.972 26.4029 25.5288 26.4029 25.2976 26.2084C23.5058 24.7695 21.4828 24.2445 19.2285 24.5945C17.9762 24.7889 16.7623 24.7112 15.6448 23.9139C15.221 23.6417 14.7778 23.4667 14.2961 23.35C13.1401 23.0389 12.4658 23.35 11.7722 24.3223C11.5988 24.5361 11.3483 24.6723 11.0785 24.7112C9.01697 24.9056 7.26367 25.7612 5.72231 27.1223C5.27917 27.5307 5.0287 27.9973 5.22137 28.639C5.3755 29.1446 5.2021 29.5724 4.77822 29.9418C4.29655 30.4085 3.85341 30.8946 3.42953 31.4002C3.04419 31.8474 3.08272 32.2363 3.42953 32.7225C4.10388 33.6753 4.73969 34.6475 5.3755 35.6197C5.74158 36.1836 6.22325 36.3392 6.8398 36.1059C7.05174 36.0475 7.24441 35.9309 7.41781 35.7947C8.30409 34.9392 9.17111 34.9781 10.1537 35.6586C11.1171 36.3198 12.0804 36.1642 13.0053 35.4447C14.0649 34.6475 15.876 35.2114 16.3963 36.4364C17.2055 38.342 18.0532 40.2282 18.8817 42.1338C18.901 42.1532 18.8432 42.2116 18.8624 42.1921C17.7449 42.1532 16.6275 42.1727 15.5292 42.0949C14.3732 42.0171 13.2365 41.8032 12.0804 41.8032C10.751 41.8032 9.53718 42.2893 8.86284 43.5338C8.51603 44.1949 8.26556 44.895 8.11142 45.6144C7.59121 47.6756 8.03435 49.5423 9.36378 51.1757C10.0381 51.9923 11.541 51.9146 11.7529 51.0006C12.0034 49.9506 12.6006 48.8617 11.618 47.7534C10.8281 46.8589 11.4061 45.6144 12.5814 45.3811C13.0631 45.2644 13.564 45.2839 14.0264 45.4005C16.2036 46.0616 18.3615 46.82 20.5579 47.4617C22.8122 48.1034 25.1242 48.6284 27.3977 49.2117C27.995 49.3673 28.3226 49.2312 28.3611 48.5312C28.4382 47.1895 28.5923 45.8672 28.6886 44.5449C28.7272 43.9227 28.7272 43.3005 28.7464 42.6977C29.2281 44.4088 29.729 46.12 29.363 47.8895C29.2666 48.3756 29.4978 48.5895 29.8832 48.7062C31.9833 49.3089 34.0449 50.0867 36.1835 50.4562C43.2931 51.6618 50.4219 52.7312 57.5507 53.8396C58.4177 53.9757 59.2847 54.0924 60.1517 54.2285C60.1517 54.1896 60.171 54.1313 60.171 54.0924C53.2734 52.3229 46.3758 50.5534 39.4782 48.7839C41.4627 48.9395 43.4279 49.1923 45.3932 49.4645C47.2043 49.7173 48.9961 49.9312 50.865 49.5812C52.3678 49.3284 53.8899 49.2506 55.412 49.3673C59.1306 49.5617 62.1555 51.1368 64.3134 54.2674C65.1033 55.4146 65.874 56.5424 66.5676 57.748C67.4347 59.2258 68.687 60.1981 70.2284 60.8203C70.9027 61.112 71.5963 61.3453 72.3092 61.5203C74.7947 62.0648 77.2994 62.5704 79.8041 63.037C80.8831 63.2315 81.9042 63.6982 82.752 64.4176C84.9677 66.2649 86.7017 68.5399 88.4165 70.8344C89.3991 72.1567 90.4395 73.4401 91.5185 74.6845C92.0579 75.3262 93.0598 75.1901 93.3874 74.5095C93.6764 73.9067 93.7342 73.2845 93.3681 72.6623C93.2525 72.4678 93.0791 72.2539 93.0984 72.0789C93.1947 71.3595 92.8094 70.9317 92.3277 70.4844C91.8075 69.9983 91.3258 69.4539 90.7863 68.9872C88.6284 67.0621 86.9329 64.6704 85.8347 61.9676C85.6805 61.6759 85.4108 61.462 85.1025 61.3453C80.9409 59.6342 76.7792 57.9619 72.6175 56.2702C72.3478 56.1535 72.0973 56.0563 71.8275 55.9397C71.8468 55.9008 71.8661 55.8424 71.8661 55.8035L106.932 64.6704C106.778 64.4954 106.585 64.3787 106.354 64.3204C96.6435 61.1509 86.9522 57.9814 77.2223 54.8702C76.047 54.5007 75.3919 53.9757 75.4112 52.7312C75.4112 52.2062 75.1029 52.0312 74.6791 51.8951C72.2129 51.059 69.766 50.2034 67.2998 49.3478L60.6912 47.0728C60.6912 47.0339 60.7105 47.0144 60.7297 46.9756L118.897 62.162ZM6.43519 30.3891C6.53153 29.9613 6.49299 29.514 6.64713 29.4363C7.10954 29.2029 7.64901 28.9113 8.24629 29.4168L6.43519 30.3891ZM14.9512 29.3974C14.8742 28.5418 14.8934 27.6084 14.6622 26.7529C14.2576 25.1973 13.7374 24.9834 12.2731 25.5862C12.119 25.6445 11.9648 25.7028 11.7722 25.7806C12.196 25.0806 13.1787 24.4195 13.8915 24.4C14.1227 24.4195 14.3539 24.4973 14.5274 24.6723C15.6641 25.664 15.8568 28.2112 14.9512 29.3974Z" fill="#2BA55D"/>
<path d="M0.751615 47.773C0.424076 48.2203 0.231405 48.7842 0.192871 49.3481C0.212138 49.7759 0.404809 50.1842 0.732348 50.437C1.00209 50.612 1.48376 50.4564 1.8691 50.437C2.02324 50.4176 2.17738 50.3009 2.31225 50.3398C3.37193 50.5148 3.77654 50.4176 4.23895 49.4842C4.77843 48.4147 5.62618 47.9481 6.7244 47.7536C6.91707 47.7147 7.07121 47.5786 7.16754 47.4036C7.37948 46.2758 7.55288 45.1285 7.78409 43.7285C6.08859 44.3896 4.45089 44.8952 2.94806 45.673C2.10031 46.1202 1.40669 46.9953 0.751615 47.773Z" fill="#2BA55D"/>
<path d="M68.3212 62.843C65.2 62.0847 62.1172 61.1513 58.9575 60.5874C54.1985 59.7319 49.401 59.1291 44.6228 58.429C43.2934 58.2346 41.9639 58.0402 40.6345 57.8457C40.6345 57.8846 40.6152 57.9235 40.6152 57.9624L80.0741 65.8764C79.8429 65.7209 79.5925 65.6042 79.3227 65.5459C75.6427 64.6709 71.982 63.7569 68.3212 62.843Z" fill="#2BA55D"/>
<path d="M49.4395 57.0481L49.4588 56.9314L28.1879 52.4785L28.1494 52.6341C29.9412 53.198 31.7331 53.7813 33.5442 54.3063C35.259 54.8119 36.9737 55.3564 38.7078 55.6869C40.9042 56.0953 43.1199 56.2703 45.3356 56.5425C46.7228 56.6981 48.0715 56.8731 49.4395 57.0481Z" fill="#2BA55D"/>
<path d="M12.8511 46.2176C12.4658 46.276 12.0419 46.451 12.196 46.8982C12.3116 47.2288 12.6777 47.6371 12.986 47.6955C14.7971 47.9677 16.6082 48.1232 18.4193 48.376C19.5753 48.5316 20.7121 48.7844 21.8488 48.9788L21.9259 48.6872C19.1514 47.8705 16.377 47.0343 13.5833 46.2176C13.3521 46.1788 13.1016 46.1788 12.8511 46.2176Z" fill="#2BA55D"/>
<path d="M14.951 29.3782C14.874 28.5226 14.8932 27.5893 14.662 26.7337C14.2574 25.1781 13.7372 24.9642 12.2729 25.567C12.1188 25.6253 11.9646 25.6837 11.772 25.7614C12.1958 25.0614 13.1785 24.4003 13.8913 24.3809C14.1226 24.4003 14.3538 24.4975 14.5272 24.6531C15.6639 25.6642 15.8566 28.2115 14.951 29.3782Z" fill="#237745"/>
<path d="M25.0087 30.9727C24.7775 31.031 24.5656 31.1088 24.3536 31.206C24.2573 31.2643 24.2188 31.3616 24.2188 31.4782C24.2958 31.731 24.4114 31.9643 24.527 32.1977C24.5848 32.256 24.6619 32.2755 24.739 32.2366C25.028 32.081 25.2592 31.8088 25.3748 31.4977C25.4518 31.2254 25.317 31.031 25.0087 30.9727Z" fill="#131413"/>
<path d="M22.6772 29.1642C22.8891 29.1253 23.101 29.0864 23.313 29.0086C23.4093 28.9892 23.4864 28.9114 23.5249 28.8336C23.6212 28.6586 23.5442 28.4447 23.3708 28.3475C23.2166 28.2503 23.0432 28.153 22.8506 28.0947C22.8506 28.0947 22.8313 28.0753 22.812 28.0753C22.6772 28.0169 22.523 28.0947 22.4652 28.2308C22.3881 28.3669 22.3303 28.503 22.2918 28.6586C22.1955 29.0669 22.234 29.1253 22.6772 29.1642Z" fill="#131413"/>
<path d="M21.8296 32.2755C21.6947 32.1783 21.5406 32.1005 21.3864 32.0422C21.3672 32.0422 21.3672 32.0227 21.3479 32.0227C21.2323 31.9839 21.0974 32.0422 21.0589 32.1589C20.9818 32.3339 20.924 32.5283 20.8855 32.7228C20.8662 32.8394 20.924 32.9172 21.0396 32.9172C21.0974 32.9172 21.1745 32.9366 21.2323 32.9366V32.9561C21.4057 32.9366 21.5984 32.8978 21.7718 32.8394C21.8488 32.82 21.9259 32.7616 21.9644 32.6839C22.0415 32.5478 21.9837 32.3533 21.8296 32.2755Z" fill="#131413"/>
<path d="M20.5 29.6898C20.3266 29.7676 20.1725 29.8648 20.0376 30.0009C19.9798 30.0787 19.9605 30.1759 19.9991 30.2731C20.1147 30.4481 20.2495 30.6037 20.4037 30.7398C20.4615 30.7592 20.5385 30.7592 20.5963 30.7204C20.7312 30.5065 20.8468 30.2731 20.9239 30.1565C20.9624 29.7481 20.7697 29.5731 20.5 29.6898Z" fill="#131413"/>
<path d="M19.4789 27.0841C19.5367 27.1619 19.6138 27.2202 19.7101 27.2397C19.9028 27.2786 20.0955 27.1425 20.134 26.948C20.1918 26.7536 20.2304 26.5786 20.2496 26.3841C20.2496 26.3647 20.2496 26.3647 20.2496 26.3452C20.2689 26.1897 20.1533 26.073 20.0184 26.0535C19.8643 26.0146 19.7101 26.0146 19.556 26.0146C19.1129 26.0146 19.0936 26.073 19.1707 26.5008C19.267 26.7147 19.3633 26.9091 19.4789 27.0841Z" fill="#131413"/>
<path d="M17.5713 29.7672C17.9566 29.6894 18.0722 29.4366 17.8988 29.2227C17.7832 29.0866 17.6483 28.9505 17.4749 28.8532C17.3786 28.8144 17.2823 28.8338 17.2052 28.8921C17.0703 29.0477 16.9547 29.2421 16.8584 29.4171C16.8584 29.4949 16.8777 29.5533 16.9355 29.5921C17.1859 29.6699 17.4364 29.7283 17.5713 29.7672Z" fill="#131413"/>
<path d="M18.1495 31.9057C18.0146 31.8668 17.8797 31.8085 17.7448 31.7891C17.687 31.8474 17.5522 31.8863 17.5329 31.9641C17.4944 32.1196 17.4751 32.2946 17.4944 32.4502C17.4944 32.4891 17.5907 32.5863 17.6292 32.5863C17.8412 32.5474 18.0339 32.4696 18.2265 32.3724C18.2843 32.3335 18.3229 32.2752 18.3421 32.2168C18.3614 32.0613 18.2651 31.9252 18.1495 31.9057Z" fill="#131413"/>
<path d="M17.6485 34.687C17.5136 34.6481 17.3787 34.5898 17.2439 34.5703C17.1861 34.6286 17.0512 34.6675 17.0319 34.7453C16.9934 34.9009 16.9741 35.0759 16.9934 35.2314C16.9934 35.2703 17.0897 35.3676 17.1283 35.3676C17.3402 35.3287 17.5329 35.2509 17.7255 35.1537C17.7834 35.1148 17.8219 35.0564 17.8412 34.9981C17.8604 34.862 17.7834 34.7259 17.6485 34.687Z" fill="#131413"/>
<path d="M49.6127 47.1123C49.3815 47.1706 49.1696 47.2484 48.9576 47.3456C48.8613 47.404 48.8228 47.5012 48.8228 47.6179C48.8998 47.8707 49.0154 48.104 49.131 48.3373C49.1888 48.3957 49.2659 48.4151 49.343 48.3762C49.632 48.2207 49.8632 47.9484 49.9788 47.6373C50.0558 47.3456 49.9017 47.1512 49.6127 47.1123Z" fill="#131413"/>
<path d="M48.553 36.0671C48.3989 35.9699 48.2255 35.8727 48.0329 35.7949C48.0329 35.7949 48.0136 35.7755 47.9943 35.7755C47.8595 35.7171 47.7053 35.7949 47.6475 35.931C47.5705 36.0671 47.5127 36.2032 47.4741 36.3588C47.3585 36.7866 47.3971 36.8255 47.8402 36.8838C48.0521 36.8449 48.2641 36.806 48.476 36.7283C48.5723 36.7088 48.6494 36.631 48.6879 36.5532C48.7842 36.3782 48.7264 36.1449 48.553 36.0671Z" fill="#131413"/>
<path d="M56.2599 48.5124C56.1058 48.4152 55.9323 48.318 55.7397 48.2402L55.7204 48.2208C55.5855 48.1624 55.4314 48.2402 55.3736 48.3763C55.2965 48.5124 55.2387 48.6486 55.2002 48.8041C55.0846 49.2319 55.1231 49.2708 55.5663 49.3291C55.7782 49.2902 55.9901 49.2514 56.2021 49.1736C56.2984 49.1541 56.3755 49.0763 56.414 48.9986C56.5104 48.8236 56.4526 48.6097 56.2599 48.5124Z" fill="#131413"/>
<path d="M42.1372 47.3263C42.0023 47.2291 41.8482 47.1513 41.694 47.093C41.6748 47.093 41.6748 47.0735 41.6555 47.0735C41.5399 47.0346 41.405 47.093 41.3665 47.2096C41.2894 47.3846 41.2316 47.5791 41.1931 47.7735C41.1738 47.8902 41.2316 47.968 41.3472 47.968C41.405 47.968 41.4821 47.9874 41.5399 47.9874V48.0069C41.7133 47.9874 41.906 47.9485 42.0794 47.8902C42.1564 47.8708 42.2335 47.8124 42.2721 47.7346C42.3491 47.5985 42.2913 47.4041 42.1372 47.3263Z" fill="#131413"/>
<path d="M45.085 39.2562C44.9116 39.334 44.7574 39.4312 44.6225 39.5673C44.5647 39.6451 44.5455 39.7423 44.584 39.8395C44.6996 40.0145 44.8345 40.1701 44.9886 40.3062C45.0464 40.3256 45.1235 40.3256 45.1813 40.2868C45.3162 40.0729 45.4318 39.8395 45.5088 39.7229C45.5474 39.3145 45.3547 39.1395 45.085 39.2562Z" fill="#131413"/>
<path d="M56.7607 38.3816C56.5873 38.4593 56.4332 38.5566 56.2983 38.6927C56.2405 38.7705 56.2213 38.8677 56.2598 38.9649C56.3754 39.1399 56.5103 39.2955 56.6644 39.4316C56.7222 39.451 56.7993 39.451 56.8571 39.4121C56.9919 39.1982 57.1075 38.9649 57.1846 38.8482C57.2231 38.4399 57.0112 38.2843 56.7607 38.3816Z" fill="#131413"/>
<path d="M63.9282 37.5066C63.7548 37.5843 63.6007 37.6816 63.4658 37.8177C63.408 37.8955 63.3887 37.9927 63.4273 38.0899C63.5429 38.2649 63.6777 38.4205 63.8319 38.5566C63.8897 38.576 63.9667 38.576 64.0245 38.5371C64.1594 38.3232 64.275 38.0899 64.3521 37.9732C64.3906 37.5649 64.198 37.4093 63.9282 37.5066Z" fill="#131413"/>
<path d="M42.349 36.0477C42.1948 36.0088 42.0407 36.0088 41.8866 36.0088C41.4434 36.0088 41.4242 36.0671 41.5012 36.4949C41.5976 36.6894 41.6939 36.8838 41.8095 37.0588C41.8673 37.1366 41.9444 37.1949 42.0407 37.2144C42.2334 37.2533 42.426 37.1171 42.4646 36.9227C42.5224 36.7283 42.5609 36.5532 42.5802 36.3588C42.5802 36.3394 42.5802 36.3394 42.5802 36.3199C42.5995 36.2032 42.5031 36.0671 42.349 36.0477Z" fill="#131413"/>
<path d="M39.9018 39.7427C40.2872 39.665 40.4028 39.4122 40.2294 39.1983C40.1138 39.0622 39.9789 38.926 39.8055 38.8288C39.7092 38.7899 39.6128 38.8094 39.5358 38.8677C39.4009 39.0233 39.2853 39.2177 39.189 39.3927C39.189 39.4705 39.2082 39.5288 39.266 39.5677C39.5165 39.665 39.767 39.7038 39.9018 39.7427Z" fill="#131413"/>
<path d="M79.0336 27.862C78.8794 27.7648 78.706 27.6676 78.5133 27.5898C78.5133 27.5898 78.4941 27.5704 78.4748 27.5704C78.3399 27.512 78.1858 27.5898 78.128 27.7259C78.0509 27.862 77.9931 27.9982 77.9546 28.1537C77.839 28.5815 77.8775 28.6204 78.3207 28.6787C78.5326 28.6398 78.7446 28.601 78.9565 28.5232C79.0528 28.5037 79.1299 28.4259 79.1684 28.3482C79.284 28.1537 79.207 27.9398 79.0336 27.862Z" fill="#131413"/>
<path d="M80.7866 30.7007C80.8829 30.5257 80.8058 30.3118 80.6324 30.2146C80.4783 30.1174 80.3049 30.0201 80.1122 29.9424L80.093 29.9229C79.9581 29.8646 79.804 29.9424 79.7462 30.0785C79.6691 30.2146 79.6113 30.3507 79.5728 30.5063C79.4572 30.9341 79.4957 30.9729 79.9388 31.0313C80.1508 30.9924 80.3627 30.9535 80.5746 30.8757C80.671 30.8563 80.748 30.7785 80.7866 30.7007Z" fill="#131413"/>
<path d="M76.8368 35.6785C76.6826 35.5812 76.5092 35.484 76.3166 35.4062C76.3166 35.4062 76.2973 35.3868 76.278 35.3868C76.1431 35.3284 75.989 35.4062 75.9312 35.5423C75.8541 35.6785 75.7963 35.8146 75.7578 35.9701C75.6422 36.3979 75.6807 36.4368 76.1239 36.4951C76.3358 36.4563 76.5478 36.4174 76.7597 36.3396C76.856 36.3201 76.9331 36.2424 76.9716 36.1646C77.0872 35.9896 77.0102 35.7757 76.8368 35.6785Z" fill="#131413"/>
<path d="M70.3826 37.9148C70.2285 37.8176 70.0551 37.7203 69.8624 37.6426C69.8624 37.6426 69.8432 37.6231 69.8239 37.6231C69.689 37.5648 69.5349 37.6426 69.4771 37.7787C69.4 37.9148 69.3422 38.0509 69.3037 38.2065C69.1881 38.6343 69.2266 38.6731 69.6698 38.7315C69.8817 38.6926 70.0936 38.6537 70.3056 38.5759C70.4019 38.5565 70.479 38.4787 70.5175 38.4009C70.6331 38.2259 70.5561 38.012 70.3826 37.9148Z" fill="#131413"/>
<path d="M76.0086 42.6013C75.8545 42.5041 75.6811 42.4069 75.4884 42.3291C75.4884 42.3291 75.4692 42.3096 75.4499 42.3096C75.315 42.2513 75.1609 42.3291 75.1031 42.4652C75.026 42.6013 74.9682 42.7374 74.9297 42.893C74.8141 43.3208 74.8526 43.3597 75.2958 43.418C75.5077 43.3791 75.7196 43.3402 75.9316 43.2624C76.0279 43.243 76.105 43.1652 76.1435 43.0874C76.2591 42.9124 76.2013 42.6985 76.0086 42.6013Z" fill="#131413"/>
<path d="M85.6422 7.34769C85.7771 7.13379 85.8927 6.90045 85.9698 6.78379C85.989 6.37544 85.7964 6.21988 85.5459 6.31711C85.3725 6.39489 85.2184 6.49211 85.0835 6.62823C85.0257 6.70601 85.0064 6.80323 85.0449 6.90045C85.1606 7.07546 85.2954 7.23102 85.4496 7.36713C85.5074 7.38658 85.5844 7.38658 85.6422 7.34769Z" fill="#131413"/>
<path d="M80.5749 20.1618C80.6712 20.3563 80.7676 20.5507 80.8832 20.7257C80.941 20.8035 81.018 20.8618 81.1144 20.8813C81.307 20.9202 81.4997 20.7841 81.5382 20.5896C81.596 20.3952 81.6346 20.2202 81.6538 20.0257C81.6538 20.0063 81.6538 20.0063 81.6538 19.9868C81.6731 19.8313 81.5575 19.7146 81.4226 19.6951C81.2685 19.6562 81.1144 19.6562 80.9602 19.6562C80.5364 19.6757 80.4978 19.7146 80.5749 20.1618Z" fill="#131413"/>
<path d="M84.2357 17.9256C84.0815 17.8867 83.9274 17.8867 83.7733 17.8867C83.3301 17.8867 83.3109 17.9451 83.3879 18.3728C83.4843 18.5673 83.5806 18.7617 83.6962 18.9367C83.754 19.0145 83.8311 19.0729 83.9274 19.0923C84.1201 19.1312 84.3127 18.9951 84.3513 18.8006C84.4091 18.6062 84.4476 18.4312 84.4669 18.2367C84.4669 18.2173 84.4669 18.2173 84.4669 18.1978C84.4861 18.0617 84.3705 17.9256 84.2357 17.9256Z" fill="#131413"/>
<path d="M82.9641 12.9672C83.1567 13.0061 83.3494 12.87 83.3879 12.6755C83.4457 12.4811 83.4843 12.3061 83.5035 12.1116C83.5035 12.0922 83.5035 12.0922 83.5035 12.0728C83.5228 11.9172 83.4072 11.8005 83.2723 11.7811C83.1182 11.7422 82.9641 11.7422 82.8099 11.7422C82.3668 11.7422 82.3475 11.8005 82.4246 12.2283C82.5209 12.4228 82.6172 12.6172 82.7328 12.7922C82.7906 12.8894 82.8677 12.9478 82.9641 12.9672Z" fill="#131413"/>
<path d="M86.4127 10.9253C86.432 10.7697 86.3164 10.6531 86.1815 10.6336C86.0274 10.5947 85.8732 10.5947 85.7191 10.5947C85.2759 10.5947 85.2567 10.6531 85.3337 11.0808C85.4301 11.2753 85.5264 11.4697 85.642 11.6448C85.6998 11.7225 85.7769 11.7809 85.8732 11.8003C86.0659 11.8392 86.2586 11.7031 86.2971 11.5086C86.3549 11.3142 86.3935 11.1392 86.4127 10.9447C86.4127 10.9447 86.4127 10.9447 86.4127 10.9253Z" fill="#131413"/>
<path d="M83.2337 24.2058C83.1374 24.1669 83.0411 24.1863 82.964 24.2447C82.8291 24.4002 82.7135 24.5947 82.6172 24.7697C82.6172 24.8475 82.6365 24.9058 82.6943 24.9447C82.9255 25.0225 83.1759 25.0613 83.3301 25.1002C83.7154 25.0225 83.831 24.7697 83.6576 24.5558C83.542 24.4197 83.3879 24.303 83.2337 24.2058Z" fill="#131413"/>
<path d="M36.203 41.8425C36.1066 41.8036 36.0103 41.8231 35.9332 41.8814C35.7984 42.0369 35.6828 42.2314 35.5864 42.4064C35.5864 42.4842 35.6057 42.5425 35.6635 42.5814C35.8947 42.6592 36.1452 42.6981 36.2993 42.737C36.6846 42.6592 36.8002 42.4064 36.6268 42.1925C36.492 42.0564 36.3571 41.9397 36.203 41.8425Z" fill="#131413"/>
<path d="M39.9408 43.2624C39.8444 43.2235 39.7481 43.243 39.671 43.3013C39.5362 43.4569 39.4206 43.6513 39.3242 43.8263C39.3242 43.9041 39.3435 43.9624 39.4013 44.0013C39.6325 44.0791 39.883 44.118 40.0371 44.1569C40.4224 44.0791 40.538 43.8263 40.3646 43.6124C40.249 43.4958 40.1142 43.3596 39.9408 43.2624Z" fill="#131413"/>
<path d="M44.6997 43.4956C44.5649 43.4567 44.43 43.3984 44.2951 43.3789C44.2373 43.4372 44.1025 43.4761 44.0832 43.5539C44.0447 43.7095 44.0254 43.8845 44.0447 44.04C44.0447 44.0789 44.141 44.1761 44.1795 44.1761C44.3915 44.1372 44.5841 44.0595 44.7768 43.9622C44.8346 43.9234 44.8731 43.865 44.8924 43.8067C44.9117 43.6511 44.8346 43.515 44.6997 43.4956Z" fill="#131413"/>
<path d="M51.501 42.1147C51.3661 42.0758 51.2313 42.0175 51.0964 41.998C51.0386 42.0564 50.9037 42.0953 50.8845 42.1731C50.8459 42.3286 50.8267 42.5036 50.8459 42.6592C50.8459 42.6981 50.9423 42.7953 50.9808 42.7953C51.1927 42.7564 51.3854 42.6786 51.5781 42.5814C51.6359 42.5425 51.6744 42.4842 51.6937 42.4258C51.7129 42.2897 51.6359 42.1536 51.501 42.1147Z" fill="#131413"/>
<path d="M59.0533 45.2456C58.9184 45.2067 58.7835 45.1484 58.6487 45.1289C58.5909 45.1872 58.456 45.2261 58.4367 45.3039C58.3982 45.4595 58.3789 45.6345 58.3982 45.79C58.3982 45.8289 58.4945 45.9261 58.533 45.9261C58.745 45.8872 58.9377 45.8095 59.1303 45.7122C59.1881 45.6734 59.2267 45.615 59.2459 45.5567C59.2652 45.4206 59.1881 45.2845 59.0533 45.2456Z" fill="#131413"/>
<path d="M53.4659 35.6206C53.331 35.5817 53.1961 35.5234 53.0613 35.5039C53.0035 35.5622 52.8686 35.6011 52.8493 35.6789C52.8108 35.8345 52.7915 36.0095 52.8108 36.165C52.8108 36.2039 52.9071 36.3011 52.9456 36.3011C53.1576 36.2623 53.3503 36.1845 53.5429 36.0873C53.6007 36.0484 53.6393 35.99 53.6585 35.9317C53.6778 35.7956 53.6007 35.6595 53.4659 35.6206Z" fill="#131413"/>
<path d="M35.6631 48.3764C35.5283 48.3375 35.3934 48.2792 35.2585 48.2598C35.2007 48.3181 35.0658 48.357 35.0466 48.4348C35.008 48.5903 34.9888 48.7653 35.008 48.9209C35.008 48.9598 35.1044 49.057 35.1429 49.057C35.3549 49.0181 35.5475 48.9403 35.7402 48.8431C35.798 48.8042 35.8365 48.7459 35.8558 48.6876C35.8751 48.532 35.7787 48.3959 35.6631 48.3764Z" fill="#131413"/>
<path d="M35.0661 37.8176C35.3551 37.6621 35.5863 37.3898 35.7019 37.0787C35.779 36.8065 35.6441 36.612 35.3358 36.5537C35.1046 36.612 34.8927 36.6898 34.6808 36.7871C34.5844 36.8454 34.5459 36.9426 34.5459 37.0593C34.623 37.3121 34.7386 37.5454 34.8542 37.7788C34.912 37.8371 34.989 37.8371 35.0661 37.8176Z" fill="#131413"/>
<path d="M34.8925 32.9751C34.9889 32.8001 34.9118 32.5862 34.7384 32.489C34.5843 32.3918 34.4109 32.2946 34.2182 32.2168L34.1989 32.1973C34.0641 32.139 33.9099 32.2168 33.8521 32.3529C33.775 32.489 33.7172 32.6251 33.6787 32.7807C33.5631 33.2085 33.6016 33.2474 34.0448 33.3057C34.2567 33.2668 34.4687 33.2279 34.6806 33.1501C34.7577 33.1307 34.8347 33.0529 34.8925 32.9751Z" fill="#131413"/>
<path d="M65.3536 51.9734C65.1995 51.8762 65.0261 51.7789 64.8334 51.7012L64.8141 51.6817C64.6793 51.6234 64.5251 51.7012 64.4673 51.8373C64.3903 51.9734 64.3325 52.1095 64.2939 52.265C64.1783 52.6928 64.2169 52.7317 64.66 52.79C64.8719 52.7512 65.0839 52.7123 65.2958 52.6345C65.3921 52.615 65.4692 52.5373 65.5077 52.4595C65.604 52.2845 65.5462 52.0706 65.3536 51.9734Z" fill="#131413"/>
<path d="M69.6891 59.1872C69.5349 59.09 69.3615 58.9928 69.1689 58.915L69.1496 58.8956C69.0147 58.8372 68.8606 58.915 68.8028 59.0511C68.7257 59.1872 68.6679 59.3428 68.6294 59.4789C68.5138 59.9067 68.5523 59.9456 68.9955 60.0039C69.2074 59.965 69.4193 59.9261 69.6313 59.8484C69.7276 59.8289 69.8047 59.7511 69.8432 59.6734C69.9395 59.4984 69.8817 59.2845 69.6891 59.1872Z" fill="#131413"/>
<path d="M74.9486 59.032C74.7944 58.9347 74.621 58.8375 74.4284 58.7597C74.4284 58.7597 74.4091 58.7403 74.3898 58.7403C74.255 58.682 74.1008 58.7597 74.043 58.8959C73.966 59.032 73.9082 59.1681 73.8696 59.3237C73.754 59.7514 73.7926 59.7903 74.2357 59.8487C74.4476 59.8098 74.6596 59.7709 74.8715 59.6931C74.9678 59.6737 75.0449 59.5959 75.0834 59.5181C75.199 59.3431 75.122 59.1292 74.9486 59.032Z" fill="#131413"/>
<path d="M81.7118 62.4148C81.5576 62.3176 81.3842 62.2203 81.1916 62.1426C81.1916 62.1426 81.1723 62.1231 81.153 62.1231C81.0182 62.0648 80.864 62.1426 80.8062 62.2787C80.7291 62.4148 80.6713 62.5509 80.6328 62.7065C80.5172 63.1343 80.5557 63.1731 80.9989 63.2315C81.2108 63.1926 81.4228 63.1537 81.6347 63.0759C81.731 63.0565 81.8081 62.9787 81.8466 62.9009C81.9622 62.7259 81.8852 62.4926 81.7118 62.4148Z" fill="#131413"/>
<path d="M87.4723 65.2546C87.3182 65.1574 87.1447 65.0602 86.9521 64.9824L86.9328 64.963C86.7979 64.9046 86.6438 64.9824 86.586 65.1185C86.5089 65.2546 86.4511 65.3907 86.4126 65.5463C86.297 65.9741 86.3355 66.013 86.7787 66.0713C86.9906 66.0324 87.2026 65.9935 87.4145 65.9157C87.5108 65.8963 87.5879 65.8185 87.6264 65.7407C87.7228 65.5657 87.6457 65.3518 87.4723 65.2546Z" fill="#131413"/>
<path d="M89.1295 69.7068C88.9754 69.6095 88.802 69.5123 88.6093 69.4345L88.59 69.4151C88.4552 69.3568 88.301 69.4345 88.2432 69.5707C88.1662 69.7068 88.1084 69.8429 88.0698 69.9984C87.9542 70.4262 87.9928 70.4651 88.4359 70.5234C88.6478 70.4845 88.8598 70.4457 89.0717 70.3679C89.168 70.3484 89.2451 70.2707 89.2836 70.1929C89.38 70.0179 89.3029 69.804 89.1295 69.7068Z" fill="#131413"/>
<path d="M92.4628 72.3318C92.3086 72.2346 92.1352 72.1373 91.9426 72.0595C91.9426 72.0595 91.9233 72.0401 91.904 72.0401C91.7691 71.9818 91.615 72.0595 91.5572 72.1957C91.4801 72.3318 91.4223 72.4679 91.3838 72.6235C91.2682 73.0513 91.3067 73.0901 91.7499 73.1485C91.9618 73.1096 92.1738 73.0707 92.3857 72.9929C92.482 72.9735 92.5591 72.8957 92.5976 72.8179C92.694 72.6429 92.6362 72.429 92.4628 72.3318Z" fill="#131413"/>
<path d="M73.5424 53.0622C73.3882 52.965 73.2148 52.8678 73.0221 52.79C73.0221 52.79 73.0029 52.7706 72.9836 52.7706C72.8487 52.7122 72.6946 52.79 72.6368 52.9261C72.5597 53.0622 72.5019 53.1984 72.4634 53.3539C72.3478 53.7817 72.3863 53.8206 72.8295 53.8789C73.0414 53.84 73.2533 53.8011 73.4653 53.7234C73.5616 53.7039 73.6387 53.6261 73.6772 53.5484C73.7928 53.3734 73.7158 53.1595 73.5424 53.0622Z" fill="#131413"/>
<path d="M38.7653 33.5007C38.6111 33.4035 38.4377 33.3063 38.245 33.2285L38.2258 33.209C38.0909 33.1507 37.9368 33.2285 37.879 33.3646C37.8019 33.5007 37.7441 33.6368 37.7056 33.7924C37.59 34.2202 37.6285 34.2591 38.0716 34.3174C38.2836 34.2785 38.4955 34.2396 38.7075 34.1618C38.8038 34.1424 38.8809 34.0646 38.9194 33.9868C39.0157 33.8118 38.9387 33.5979 38.7653 33.5007Z" fill="#131413"/>
<path d="M32.4266 40.1115C32.5037 39.956 32.4459 39.7615 32.311 39.6837C32.1762 39.5865 32.022 39.5087 31.8679 39.4504C31.8486 39.4504 31.8486 39.4309 31.8293 39.4309C31.7137 39.3921 31.5789 39.4504 31.5403 39.5671C31.4633 39.7421 31.4055 39.9365 31.3669 40.131C31.3477 40.2476 31.4055 40.3254 31.5211 40.3254C31.5789 40.3254 31.6559 40.3449 31.7137 40.3449V40.3643C31.8871 40.3449 32.0798 40.306 32.2532 40.2476C32.311 40.2476 32.3881 40.1893 32.4266 40.1115Z" fill="#131413"/>
<path d="M33.2744 45.3429C33.1395 45.2457 32.9854 45.1679 32.8313 45.1096C32.812 45.1096 32.812 45.0901 32.7927 45.0901C32.6771 45.0512 32.5422 45.1096 32.5037 45.2262C32.4266 45.4012 32.3688 45.5957 32.3303 45.7901C32.311 45.9068 32.3688 45.9846 32.4844 45.9846C32.5422 45.9846 32.6193 46.004 32.6771 46.004V46.0235C32.8505 46.004 33.0432 45.9651 33.2166 45.9068C33.2937 45.8874 33.3707 45.829 33.4093 45.7512C33.4863 45.6346 33.4285 45.4401 33.2744 45.3429Z" fill="#131413"/>
<path d="M31.6173 35.8535C31.7522 35.6397 31.8678 35.4063 31.9449 35.2896C31.9641 34.8813 31.7715 34.7257 31.521 34.823C31.3476 34.9007 31.1935 34.998 31.0586 35.1341C31.0008 35.2119 30.9815 35.3091 31.02 35.4063C31.1357 35.5813 31.2705 35.7369 31.4247 35.873C31.5017 35.9119 31.5595 35.8924 31.6173 35.8535Z" fill="#131413"/>
<path d="M30.0179 31.0897C29.8638 31.0508 29.7096 31.0508 29.5555 31.0508C29.1124 31.0508 29.0931 31.1091 29.1702 31.5369C29.2665 31.7314 29.3628 31.9258 29.4784 32.1008C29.5362 32.1786 29.6133 32.2369 29.7096 32.2564C29.9023 32.2953 30.095 32.1591 30.1335 31.9647C30.1913 31.7702 30.2298 31.5952 30.2491 31.4008C30.2491 31.3813 30.2491 31.3813 30.2491 31.3619C30.2684 31.2452 30.1528 31.1091 30.0179 31.0897Z" fill="#131413"/>
<path d="M27.1855 34.9981C27.1855 35.0759 27.2048 35.1342 27.2626 35.1731C27.4938 35.2509 27.7443 35.2898 27.8984 35.3287C28.2838 35.2509 28.3994 34.9981 28.226 34.7842C28.1104 34.6481 27.9755 34.512 27.8021 34.4148C27.7058 34.3759 27.6094 34.3953 27.5323 34.4537C27.3975 34.6481 27.2819 34.8231 27.1855 34.9981Z" fill="#131413"/>
<path d="M28.4576 37.4868C28.3227 37.4479 28.1878 37.3896 28.053 37.3701C27.9952 37.4285 27.8603 37.4673 27.841 37.5451C27.8025 37.7007 27.7832 37.8757 27.8025 38.0312C27.8025 38.0701 27.8988 38.1674 27.9373 38.1674C28.1493 38.1285 28.342 38.0507 28.5346 37.9535C28.5924 37.9146 28.631 37.8562 28.6502 37.7979C28.6695 37.6423 28.5924 37.5062 28.4576 37.4868Z" fill="#131413"/>
<path d="M27.9756 40.2866C27.8408 40.2477 27.7059 40.1894 27.571 40.1699C27.5132 40.2283 27.3783 40.2671 27.3591 40.3449C27.3205 40.5005 27.3013 40.6755 27.3205 40.831C27.3205 40.8699 27.4169 40.9672 27.4554 40.9672C27.6674 40.9283 27.86 40.8505 28.0527 40.7533C28.1105 40.7144 28.149 40.656 28.1683 40.5977C28.1876 40.4421 28.0912 40.306 27.9756 40.2866Z" fill="#131413"/>
<path d="M23.4674 44.5451C23.2748 44.4089 23.0821 44.2728 22.8894 44.1562C22.7931 44.1173 22.6775 44.1367 22.5811 44.2145C22.427 44.4284 22.3114 44.6617 22.1958 44.8951C22.1958 44.9728 22.2343 45.0506 22.2921 45.0895C22.6004 45.2256 22.9472 45.2451 23.2555 45.1478C23.5445 45.0506 23.6023 44.8173 23.4674 44.5451Z" fill="#131413"/>
<path d="M13.3327 43.1837C13.14 43.0476 12.9473 42.9115 12.7546 42.7948C12.6583 42.7559 12.5427 42.7754 12.4464 42.8532C12.2922 43.0671 12.1766 43.3004 12.061 43.5337C12.061 43.6115 12.0996 43.6893 12.1574 43.7282C12.4656 43.8643 12.8125 43.8837 13.1207 43.7865C13.4097 43.6893 13.4675 43.456 13.3327 43.1837Z" fill="#131413"/>
<path d="M9.15171 45.4203C9.42145 45.3231 9.47925 45.0898 9.34438 44.8175C9.15171 44.6814 8.95904 44.5453 8.76637 44.4286C8.67003 44.3897 8.55443 44.4092 8.4581 44.487C8.30396 44.7009 8.18836 44.9342 8.07275 45.1675C8.07275 45.2453 8.11129 45.3231 8.16909 45.362C8.49663 45.4981 8.84344 45.5175 9.15171 45.4203Z" fill="#131413"/>
<path d="M9.78773 49.6398C9.59506 49.5037 9.40239 49.3676 9.20972 49.2509C9.11339 49.212 8.99779 49.2314 8.90145 49.3092C8.74732 49.5231 8.63172 49.7565 8.51611 49.9898C8.51611 50.0676 8.55465 50.1454 8.61245 50.1843C8.92072 50.3204 9.26753 50.3398 9.5758 50.2426C9.84554 50.1454 9.9226 49.912 9.78773 49.6398Z" fill="#131413"/>
<path d="M11.8297 50.1847C11.6371 50.0486 11.4444 49.9125 11.2517 49.7958C11.1554 49.7569 11.0398 49.7764 10.9434 49.8541C10.7893 50.068 10.6737 50.3014 10.5581 50.5347C10.5581 50.6125 10.5966 50.6903 10.6544 50.7292C10.9627 50.8653 11.3095 50.8847 11.6178 50.7875C11.8875 50.6903 11.9646 50.4569 11.8297 50.1847Z" fill="#131413"/>
<path d="M24.4305 41.0652C24.4305 41.0458 24.4305 41.0458 24.4305 41.0263C24.392 40.8902 24.2571 40.793 24.103 40.8319C23.9488 40.8513 23.814 40.9097 23.6598 40.968C23.2552 41.1236 23.236 41.1819 23.4672 41.5708C23.6213 41.7263 23.7947 41.8625 23.9681 41.9791C24.0452 42.0375 24.1415 42.0569 24.2378 42.0375C24.4305 41.9986 24.5654 41.8041 24.5268 41.6097C24.5268 41.4347 24.4883 41.2402 24.4305 41.0652Z" fill="#131413"/>
<path d="M20.4231 42.27C20.4231 42.2506 20.4231 42.2311 20.4038 42.2311C20.3653 42.1144 20.2304 42.0367 20.1148 42.0755C19.9222 42.1339 19.7295 42.1922 19.5561 42.27C19.5368 42.27 19.5175 42.2894 19.5175 42.2894C19.4597 42.3478 19.4405 42.445 19.4983 42.5033C19.5368 42.5617 19.5753 42.62 19.5946 42.6589L19.5753 42.6783C19.7102 42.8144 19.8451 42.9311 19.9992 43.0283C20.057 43.0867 20.1534 43.1061 20.2304 43.0867C20.4038 43.0672 20.5194 42.9117 20.5002 42.7367C20.5002 42.6006 20.4809 42.4256 20.4231 42.27Z" fill="#131413"/>
<path d="M21.7523 40.1311C21.5981 40.0338 21.4247 39.9755 21.2321 39.9561C21.1357 39.9561 21.0394 40.0144 21.0009 40.0922C20.9431 40.2866 20.8853 40.5005 20.8853 40.7144C20.8853 40.7533 20.9816 40.87 21.0201 40.8505C21.2706 40.8311 21.5211 40.7922 21.6559 40.7728C21.9835 40.5394 21.9835 40.2672 21.7523 40.1311Z" fill="#131413"/>
<path d="M23.448 37.1563C23.3516 37.3508 23.2553 37.5452 23.1782 37.7591C23.1397 37.8564 23.1397 37.9536 23.1975 38.0508C23.2938 38.2258 23.5058 38.3036 23.6792 38.2258C23.8526 38.148 24.026 38.0703 24.1994 37.973C24.1994 37.973 24.2186 37.973 24.2186 37.9536C24.3535 37.8758 24.392 37.7202 24.315 37.5841C24.2572 37.448 24.1608 37.3119 24.0645 37.1952C23.814 36.8258 23.7562 36.8258 23.448 37.1563Z" fill="#131413"/>
<path d="M20.3848 37.001C20.1728 37.001 19.9609 37.001 19.7682 37.0399C19.7104 37.0788 19.6719 37.1371 19.6719 37.2149C19.7682 37.4482 19.8645 37.6816 19.9223 37.8177C20.2306 38.0705 20.4811 38.0121 20.5389 37.7399C20.5774 37.5649 20.5967 37.3704 20.5774 37.1954C20.5582 37.0982 20.4811 37.0204 20.3848 37.001Z" fill="#131413"/>
<path d="M23.3901 34.2783C23.1782 34.2783 22.9662 34.2783 22.7736 34.3172C22.7158 34.3561 22.6772 34.4144 22.6772 34.4922C22.7736 34.7255 22.8699 34.9589 22.9277 35.095C23.236 35.3478 23.4865 35.2894 23.5443 35.0172C23.5828 34.8422 23.6021 34.6478 23.5828 34.4728C23.5635 34.3755 23.4865 34.2978 23.3901 34.2783Z" fill="#131413"/>
<path d="M14.643 30.1562C14.4118 30.2146 14.1998 30.2924 13.9879 30.3896C13.8916 30.4479 13.853 30.5451 13.853 30.6618C13.9301 30.9146 14.0457 31.1479 14.1613 31.3813C14.2191 31.4396 14.2962 31.4591 14.3732 31.4202C14.6622 31.2646 14.8935 30.9924 15.0091 30.6813C15.0861 30.3896 14.9513 30.1951 14.643 30.1562Z" fill="#131413"/>
<path d="M10.6546 32.1007C10.7124 32.1007 10.7894 32.1202 10.8472 32.1202V32.1396C11.0206 32.1202 11.2133 32.0813 11.3867 32.0229C11.4638 32.0035 11.5409 31.9452 11.5794 31.8674C11.6565 31.7118 11.5987 31.5174 11.4638 31.4396C11.3289 31.3424 11.1748 31.2646 11.0206 31.2062C11.0014 31.2062 11.0014 31.1868 10.9821 31.1868C10.8665 31.1479 10.7316 31.2062 10.6931 31.3229C10.616 31.4979 10.5582 31.6924 10.5197 31.8868C10.4812 32.0035 10.539 32.0813 10.6546 32.1007Z" fill="#131413"/>
<path d="M6.7241 34.3761C6.58924 34.2789 6.4351 34.2011 6.28096 34.1428C6.26169 34.1428 6.2617 34.1233 6.24243 34.1233C6.12683 34.0844 5.99196 34.1428 5.95342 34.2594C5.87635 34.4344 5.81855 34.6289 5.78002 34.8233C5.76075 34.94 5.81855 35.0178 5.93415 35.0178C5.99196 35.0178 6.06902 35.0372 6.12683 35.0372V35.0567C6.30023 35.0372 6.4929 34.9983 6.6663 34.94C6.74337 34.9206 6.82044 34.8622 6.85897 34.7845C6.93604 34.6483 6.87824 34.4539 6.7241 34.3761Z" fill="#131413"/>
<path d="M10.597 26.7336C10.6741 26.578 10.6163 26.3836 10.4814 26.3058C10.3466 26.2086 10.1924 26.1308 10.0383 26.0725C10.019 26.0725 10.019 26.053 9.99975 26.053C9.88415 26.0141 9.74928 26.0725 9.71075 26.1891C9.63368 26.3641 9.57588 26.5586 9.53734 26.753C9.51808 26.8697 9.57588 26.9475 9.69148 26.9475C9.74928 26.9475 9.82635 26.9669 9.88415 26.9669V26.9864C10.0576 26.9669 10.2502 26.928 10.4236 26.8697C10.4814 26.8503 10.5585 26.7919 10.597 26.7336Z" fill="#131413"/>
<path d="M13.2944 28.0167C13.1596 27.9195 13.0054 27.8417 12.8513 27.7834C12.832 27.7834 12.832 27.764 12.8127 27.764C12.6971 27.7251 12.5623 27.7834 12.5237 27.9001C12.4467 28.0751 12.3889 28.2695 12.3503 28.464C12.3311 28.5806 12.3889 28.6584 12.5045 28.6584C12.5623 28.6584 12.6393 28.6779 12.6971 28.6779V28.6973C12.8705 28.6779 13.0632 28.639 13.2366 28.5806C13.3137 28.5612 13.3908 28.5029 13.4293 28.4251C13.5064 28.289 13.4486 28.0945 13.2944 28.0167Z" fill="#131413"/>
<path d="M30.1914 27.0646C30.0565 26.9674 29.9024 26.8896 29.7482 26.8312C29.729 26.8312 29.729 26.8118 29.7097 26.8118C29.5941 26.7729 29.4592 26.8312 29.4207 26.9479C29.3436 27.1229 29.2858 27.3174 29.2473 27.5118C29.228 27.6285 29.2858 27.7063 29.4014 27.7063C29.4592 27.7063 29.5363 27.7257 29.5941 27.7257V27.7452C29.7675 27.7257 29.9602 27.6868 30.1336 27.6285C30.2107 27.6091 30.2877 27.5507 30.3263 27.4729C30.3841 27.3368 30.3263 27.1618 30.1914 27.0646Z" fill="#131413"/>
<path d="M26.8004 29.5538V29.5732C26.9738 29.5538 27.1665 29.5149 27.3399 29.4565C27.417 29.4371 27.494 29.3788 27.5326 29.301C27.6096 29.1454 27.5518 28.951 27.417 28.8732C27.2821 28.776 27.128 28.6982 26.9738 28.6398C26.9546 28.6398 26.9546 28.6204 26.9353 28.6204C26.8197 28.5815 26.6848 28.6398 26.6463 28.7565C26.5692 28.9315 26.5114 29.126 26.4729 29.3204C26.4536 29.4371 26.5114 29.5149 26.627 29.5149C26.6656 29.5343 26.7426 29.5343 26.8004 29.5538Z" fill="#131413"/>
<path d="M5.81861 31.9257C5.87641 31.7895 5.81861 31.634 5.68374 31.5757C5.56814 31.5368 5.45254 31.4979 5.33694 31.459C5.27914 31.5173 5.1828 31.5562 5.16353 31.634C5.125 31.7895 5.125 31.9646 5.125 32.1201C5.125 32.159 5.20207 32.2562 5.22134 32.2562C5.39474 32.2173 5.56814 32.1396 5.72228 32.0423C5.78008 32.0034 5.79935 31.9646 5.81861 31.9257Z" fill="#131413"/>
<path d="M12.562 34.2591C12.8703 34.5118 13.1207 34.4535 13.1785 34.1813C13.2171 34.0063 13.2363 33.8118 13.2171 33.6368C13.1978 33.5396 13.1207 33.4618 13.0244 33.4424C12.8125 33.4424 12.6005 33.4424 12.4079 33.4813C12.3501 33.5202 12.3115 33.5785 12.3115 33.6563C12.3886 33.9091 12.5042 34.1424 12.562 34.2591Z" fill="#131413"/>
<path d="M17.1668 44.0202C17.0897 44.0008 16.9741 43.923 16.897 43.9619C16.7429 44.0202 16.608 44.1175 16.4924 44.2341C16.4539 44.2536 16.4346 44.3897 16.4732 44.4091C16.6273 44.5453 16.82 44.6619 17.0126 44.7592C17.2246 44.8369 17.3787 44.6619 17.3209 44.4286C17.2824 44.2925 17.2246 44.1564 17.1668 44.0202Z" fill="#131413"/>
<path d="M11.3868 46.1981C11.3483 46.062 11.2905 45.9259 11.2327 45.7898C11.1556 45.7703 11.04 45.6926 10.9629 45.7314C10.8088 45.7898 10.6739 45.887 10.5583 46.0037C10.5198 46.0231 10.5005 46.1592 10.5391 46.1787C10.6932 46.3148 10.8859 46.4314 11.0785 46.5287C11.2712 46.6064 11.4446 46.412 11.3868 46.1981Z" fill="#131413"/>
<path d="M27.3015 45.4978C27.2245 45.4783 27.1089 45.4006 27.0318 45.4395C26.8777 45.4978 26.7428 45.595 26.6272 45.7117C26.5887 45.7311 26.5694 45.8672 26.6079 45.8867C26.7621 46.0228 26.9547 46.1395 27.1474 46.2367C27.3593 46.3145 27.5135 46.1395 27.4557 45.9061C27.3979 45.7506 27.3593 45.6145 27.3015 45.4978Z" fill="#131413"/>
<path d="M0.751288 47.8707C0.616418 48.0651 0.481549 48.2596 0.365947 48.454C0.327413 48.5512 0.34668 48.6679 0.423748 48.7651C0.635685 48.9207 0.86689 49.0373 1.09809 49.154C1.17516 49.154 1.25223 49.1151 1.29076 49.0568C1.42563 48.7457 1.4449 48.3957 1.34857 48.0846C1.25223 47.7929 1.02103 47.7345 0.751288 47.8707Z" fill="#131413"/>
<path d="M4.37336 47.2867C4.23849 47.4811 4.10362 47.6756 3.98802 47.87C3.94948 47.9672 3.96875 48.0839 4.04582 48.1811C4.25776 48.3367 4.48896 48.4534 4.72016 48.57C4.79723 48.57 4.8743 48.5311 4.91284 48.4728C5.0477 48.1617 5.06697 47.8117 4.97064 47.5006C4.8743 47.2089 4.6431 47.1506 4.37336 47.2867Z" fill="#131413"/>
<path d="M6.0882 44.7006C5.95333 44.895 5.81846 45.0895 5.70286 45.2839C5.66433 45.3812 5.68359 45.4978 5.76066 45.595C5.9726 45.7506 6.2038 45.8673 6.43501 45.9839C6.51208 45.9839 6.58915 45.9451 6.62768 45.8867C6.76255 45.5756 6.78182 45.2256 6.68548 44.9145C6.58915 44.6228 6.35794 44.545 6.0882 44.7006Z" fill="#131413"/>
<path d="M61.8279 43.2034L74.8331 46.5479L74.7946 46.2562C74.7753 46.1007 74.7561 45.9645 74.7368 45.8284C74.6983 45.5756 74.679 45.3812 74.679 45.1868C74.679 44.409 74.3129 43.9228 73.4844 43.6506C72.4247 43.3006 71.3458 42.8728 70.3054 42.4839C69.9008 42.3284 69.4769 42.1728 69.0723 42.0172L67.4731 41.4144L99.8225 50.6702L99.9959 50.7285L100.169 50.2619L73.7734 39.8977C73.8312 39.82 73.9083 39.7616 73.9661 39.6838C74.2166 39.4116 74.4478 39.1588 74.679 38.9255C76.7984 36.8449 78.7251 34.5698 80.4398 32.1392C82.2317 29.5919 83.2914 27.4725 83.8501 25.2752C84.7749 21.6973 85.2181 18.6639 85.2566 15.7666C85.2759 14.2305 85.7575 12.7721 86.6631 11.5276C87.0292 11.0221 87.4145 10.4971 87.7806 10.0109C88.1659 9.50538 88.5705 8.96092 88.9366 8.43591C89.3412 7.872 89.4568 7.3081 89.3027 6.84142C89.1293 6.3553 88.6861 5.98585 88.0118 5.77196C86.8365 5.30528 85.5071 5.49973 84.4667 6.21919C82.4821 7.63867 81.3839 9.19426 81.0949 11.0026C80.8252 12.9082 80.6518 14.8527 80.6132 16.7778C80.5169 19.7917 80.1316 23.7196 78.1278 27.2586C76.3167 30.3892 74.1395 33.3059 71.6541 35.9115C70.209 37.4671 68.5328 38.0894 66.5676 37.8171C64.1977 37.4866 61.8279 37.0588 59.7663 36.6504C53.6586 35.4838 47.4547 34.2782 41.347 33.0726C40.9424 32.9754 40.557 32.7809 40.2873 32.4892C39.7478 31.8864 39.0542 31.4587 38.2835 31.2642C37.9175 31.1864 37.5514 31.0503 37.2046 30.9336C37.0504 30.8753 36.8963 30.8364 36.7614 30.7781L36.1642 30.5836L51.7319 34.2198L51.8861 33.6559L34.0063 27.8808L37.1468 28.3669L36.6266 27.9197C36.0678 27.4336 35.4706 27.0447 34.8925 26.6558C34.6228 26.4808 34.3531 26.2863 34.0833 26.1113C33.1585 25.4502 32.1952 25.178 31.2511 25.3141C30.2877 25.4502 29.3051 25.6252 28.361 25.7808C27.6867 25.8974 27.0123 26.0335 26.338 26.1308C25.9719 26.1891 25.6251 26.1502 25.4902 26.0335C23.6598 24.5752 21.6368 24.0307 19.267 24.3613C17.8027 24.5752 16.743 24.3807 15.8182 23.7001C15.375 23.4279 14.9126 23.214 14.4117 23.1168C13.1978 22.8057 12.4464 23.0974 11.6757 24.1668C11.5409 24.3418 11.3289 24.4585 11.117 24.4779C9.09396 24.6724 7.30213 25.4696 5.66443 26.928C5.08642 27.4336 4.91301 27.9975 5.10568 28.6392C5.22129 29.0669 5.10568 29.3975 4.72034 29.7475C4.23867 30.2142 3.77626 30.7198 3.37165 31.2253C2.94777 31.7114 2.92851 32.217 3.35238 32.8004C3.94966 33.6365 4.52767 34.5115 5.06715 35.3476L5.29835 35.6976C5.70296 36.3393 6.30024 36.5338 6.97459 36.2615C7.20579 36.1838 7.437 36.0671 7.62967 35.9115C8.40035 35.1726 9.17103 35.1337 10.1344 35.7949C11.117 36.4754 12.1574 36.3977 13.2171 35.581C13.641 35.2504 14.2383 35.1532 14.8548 35.3282C15.5099 35.5032 16.0686 35.9504 16.2998 36.4949C16.8393 37.7588 17.3981 39.0227 17.9375 40.2672C18.188 40.8311 18.4385 41.4144 18.689 41.9783C18.4385 41.9783 18.1687 41.9589 17.9183 41.9589C17.1283 41.9395 16.3962 41.9395 15.6255 41.8811C15.1631 41.8617 14.7007 41.8033 14.2383 41.745C13.5639 41.6672 12.8703 41.5894 12.1767 41.5894C10.6161 41.5894 9.44077 42.2117 8.78569 43.4173C8.43888 44.0978 8.16914 44.7979 8.01501 45.5368C7.47553 47.6563 7.91867 49.5813 9.3059 51.273C9.71051 51.7786 10.4619 52.0119 11.117 51.8563C11.5987 51.7397 11.9455 51.4286 12.0418 51.0008C12.0804 50.8258 12.1382 50.6508 12.196 50.4563C12.4464 49.5813 12.7547 48.5702 11.8684 47.5785C11.5794 47.2479 11.4831 46.8396 11.6179 46.4507C11.7721 46.0034 12.196 45.6534 12.7162 45.5368C13.1593 45.4395 13.641 45.4395 14.0649 45.5562C15.0475 45.8479 16.0301 46.1784 16.9742 46.4896C18.1495 46.8785 19.3826 47.2674 20.5964 47.6174C22.1185 48.0452 23.6791 48.434 25.1819 48.8035C25.9334 48.9785 26.6848 49.173 27.4362 49.3674C27.6867 49.4257 28.0527 49.4841 28.3032 49.2896C28.4959 49.1341 28.6115 48.8813 28.6307 48.5118C28.6693 47.7535 28.7464 46.9951 28.8234 46.2562C28.8812 45.6923 28.9198 45.109 28.9776 44.5256C28.9968 44.3506 28.9968 44.1951 28.9968 44.0201C29.3244 45.284 29.517 46.5285 29.2473 47.8118C29.1317 48.3563 29.3629 48.7063 29.9024 48.8618C30.5189 49.0368 31.1547 49.2507 31.7713 49.4257C33.2163 49.873 34.6999 50.3591 36.222 50.6119C41.4241 51.5063 46.7418 52.323 51.8668 53.1203C53.7742 53.4119 55.6817 53.7036 57.5891 54.0147C58.1864 54.112 58.7644 54.1897 59.3617 54.287C59.6314 54.3259 59.9204 54.3647 60.1902 54.4036L60.3828 54.4231L60.4599 53.9175L42.0599 49.2507C43.2159 49.3868 44.3527 49.5424 45.3738 49.6785C47.05 49.9119 48.9575 50.1646 50.9035 49.7952C52.387 49.5424 53.9091 49.4841 55.4119 49.5813C59.169 49.7952 62.0976 51.4091 64.1592 54.4036C64.9299 55.5314 65.7198 56.6787 66.4134 57.8648C67.2612 59.3232 68.4943 60.3538 70.1705 61.0149C70.8448 61.3066 71.5577 61.5594 72.2899 61.7344C74.3322 62.1816 77.0488 62.7455 79.804 63.2511C80.8445 63.4261 81.8463 63.8927 82.6555 64.5928C84.852 66.4206 86.5668 68.6567 88.2815 70.9707C89.1678 72.1568 90.1504 73.4013 91.4028 74.8402C91.6725 75.1513 92.0579 75.3263 92.4432 75.3263C92.501 75.3263 92.5588 75.3263 92.6166 75.3069C93.0405 75.2486 93.4066 74.9958 93.5992 74.6263C93.9653 73.9069 93.946 73.2068 93.58 72.5846C93.5607 72.5457 93.5222 72.5068 93.5029 72.4485C93.4451 72.3513 93.3295 72.1957 93.3488 72.1179C93.4644 71.3012 93.002 70.7957 92.5203 70.3679C92.2891 70.154 92.0386 69.9012 91.8267 69.6873C91.5569 69.4151 91.2872 69.1429 90.9982 68.8706C88.8595 66.9845 87.164 64.5733 86.1043 61.9288L86.0851 61.9094C85.8924 61.5788 85.6034 61.326 85.2566 61.1899C81.9812 59.8482 78.6287 58.4871 75.3919 57.1842L73.523 56.4259L107.529 65.0011L107.105 64.515C106.932 64.3011 106.682 64.165 106.431 64.1066C104.196 63.3872 101.98 62.6483 99.7454 61.9288C92.3854 59.5371 84.7942 57.0481 77.2993 54.6564C76.047 54.2675 75.6038 53.7425 75.6231 52.7119C75.6231 52.0314 75.1799 51.8175 74.7561 51.6813C72.9064 51.0591 71.0375 50.4174 69.2264 49.7757L64.4097 48.1035L118.878 62.2983L119.07 62.3371L119.128 62.1427C119.147 62.1038 119.147 62.0455 119.167 62.0066L119.224 61.8316L61.8279 43.2034ZM60.5948 46.7423L60.4599 47.209L69.0723 50.1841C70.8834 50.8063 72.7523 51.4675 74.6019 52.0897C75.0258 52.2258 75.2185 52.3619 75.1992 52.7508C75.1799 54.2481 76.124 54.7536 77.1452 55.0648C84.6401 57.4565 92.2505 59.926 99.5913 62.3371C100.901 62.7649 102.192 63.1927 103.502 63.6205L71.9431 55.6675L71.7697 55.6287L71.5963 56.1148L72.0201 56.2898C72.1935 56.3676 72.3862 56.4453 72.5596 56.5231L75.1992 57.5926C78.4361 58.8954 81.7693 60.2565 85.0639 61.5982C85.3337 61.6955 85.5456 61.8899 85.6805 62.1233C86.7787 64.8261 88.5127 67.2762 90.6899 69.2012C90.9789 69.454 91.2486 69.7262 91.4991 69.9984C91.7303 70.2318 91.9615 70.4651 92.212 70.6984C92.6551 71.1068 93.002 71.4762 92.9056 72.1179C92.8671 72.3318 93.002 72.5457 93.1176 72.7207C93.1368 72.7596 93.1754 72.7985 93.1946 72.8374C93.5029 73.343 93.5029 73.8874 93.1946 74.4902C93.0598 74.743 92.8093 74.918 92.5203 74.9569C92.1927 74.9958 91.8652 74.8791 91.6533 74.6069C90.4202 73.168 89.4376 71.9429 88.5513 70.7568C86.8172 68.4234 85.1025 66.1678 82.8675 64.3011C82.0005 63.5622 80.96 63.0761 79.8426 62.8816C77.1066 62.376 74.39 61.8121 72.3477 61.3649C71.6541 61.1899 70.9604 60.9566 70.2861 60.6649C68.6869 60.0427 67.5117 59.051 66.7217 57.6898C66.0281 56.4842 65.2189 55.3175 64.4482 54.2092C62.3095 51.1174 59.2654 49.4257 55.4119 49.2118C54.9303 49.173 54.4679 49.1535 53.9862 49.1535C52.9265 49.1535 51.8668 49.2507 50.8071 49.4257C48.9189 49.7952 47.05 49.5424 45.3931 49.3091C43.6012 49.0563 41.5204 48.7841 39.4588 48.6285L39.401 49.0174L57.724 53.7231C57.6662 53.7231 57.6084 53.7036 57.5506 53.7036C55.6432 53.4119 53.7357 53.1008 51.8283 52.8092C46.7032 52.0119 41.3855 51.1952 36.1834 50.3008C34.6999 50.048 33.2163 49.5813 31.7905 49.1341C31.174 48.9396 30.5382 48.7452 29.9024 48.5507C29.5556 48.4535 29.4592 48.2979 29.517 47.9674C29.8831 46.159 29.3822 44.3895 28.9005 42.6978L28.5344 41.4339L28.4959 42.7173C28.4959 42.9117 28.4959 43.1061 28.4766 43.3006C28.4766 43.7089 28.4573 44.1367 28.4381 44.5645C28.3995 45.1479 28.3417 45.7312 28.2839 46.2951C28.2069 47.034 28.1491 47.8118 28.0913 48.5507C28.072 48.8035 28.0142 48.9785 27.9179 49.0368C27.8215 49.1146 27.6289 49.1146 27.3784 49.0368C26.627 48.8424 25.8756 48.6674 25.1241 48.4729C23.6213 48.1035 22.0607 47.7146 20.5386 47.2868C19.3248 46.9368 18.1109 46.5479 16.9356 46.159C15.9723 45.8479 14.9897 45.5173 14.0071 45.2256C13.5061 45.0895 12.9666 45.0895 12.4657 45.2062C11.7913 45.3423 11.2711 45.7895 11.0592 46.3729C10.8858 46.8979 11.0014 47.4618 11.3867 47.909C12.1189 48.7452 11.8877 49.5619 11.6372 50.4174C11.5794 50.6119 11.5216 50.7869 11.4831 50.9813C11.3867 51.3508 11.0592 51.4869 10.8473 51.5452C10.3271 51.6619 9.74904 51.4869 9.44077 51.098C8.13061 49.5035 7.726 47.6951 8.22694 45.7118C8.38108 45.0117 8.63155 44.3117 8.95909 43.6895C9.69124 42.3478 11.0207 42.0756 12.0033 42.0756C12.6776 42.0756 13.352 42.1533 14.0263 42.2311C14.4887 42.2895 14.9704 42.3478 15.4328 42.3672C16.2035 42.4061 16.9742 42.4256 17.7449 42.445C18.0724 42.445 18.3807 42.4645 18.7082 42.4645L18.7853 42.5228L18.9009 42.4256C18.9394 42.4061 18.978 42.3284 18.9972 42.2506L19.0743 42.0756H18.9587C18.689 41.4533 18.3999 40.8116 18.1302 40.1894C17.5907 38.9644 17.032 37.681 16.4925 36.4366C16.2035 35.7754 15.5677 35.2504 14.7777 35.0365C14.0456 34.8421 13.3327 34.9587 12.8125 35.3671C11.8877 36.0865 11.0207 36.1449 10.1922 35.581C9.0747 34.8226 8.11134 34.8615 7.20579 35.7171C7.05166 35.8338 6.87825 35.931 6.66631 35.9893C6.1461 36.1838 5.76076 36.0671 5.45249 35.581L5.22129 35.231C4.66254 34.3754 4.1038 33.5004 3.48725 32.6642C3.17898 32.2365 3.17898 31.9253 3.48725 31.5753C3.89186 31.0698 4.35427 30.5836 4.81668 30.1364C5.31762 29.6892 5.49102 29.1836 5.31762 28.6197C5.16348 28.1141 5.31762 27.7058 5.76076 27.3169C7.34066 25.9169 9.05543 25.1391 11.0014 24.9641C11.3289 24.9252 11.6179 24.7696 11.8299 24.4974C12.5042 23.5446 13.1015 23.3112 14.1612 23.6029C14.6236 23.7001 15.0475 23.8752 15.4328 24.1279C16.4347 24.8668 17.5715 25.0807 19.1514 24.8474C21.4056 24.5168 23.3323 25.0418 25.0663 26.4224C25.3939 26.6947 25.9912 26.6363 26.2224 26.5974C26.8967 26.5002 27.5903 26.3641 28.2647 26.2474C29.2088 26.0724 30.1721 25.8974 31.1355 25.7808C31.9832 25.6641 32.8502 25.9169 33.698 26.5197C33.9677 26.7141 34.2567 26.8891 34.5265 27.0836C34.8925 27.3363 35.2779 27.5891 35.644 27.8614L32.2337 27.3363L32.0988 27.8419L49.2658 33.3837L32.1566 29.3781L31.9832 29.3392L31.8483 29.7475L36.6073 31.167C36.7614 31.2059 36.8963 31.2642 37.0504 31.3225C37.4165 31.4392 37.7826 31.5753 38.1679 31.6531C38.8808 31.8281 39.4974 32.217 39.979 32.7615C40.3258 33.1115 40.769 33.3643 41.2507 33.4615C47.3583 34.6671 53.5623 35.8726 59.67 37.0393C61.7315 37.4282 64.1207 37.8755 66.4905 38.206C68.5906 38.4977 70.3632 37.8366 71.9238 36.1643C74.4285 33.5198 76.625 30.5836 78.4553 27.4336C80.5169 23.8168 80.883 19.8306 80.9986 16.7583C81.0371 14.8527 81.1913 12.9277 81.4803 11.0221C81.75 9.31093 82.7711 7.872 84.6979 6.51086C85.6227 5.84974 86.8365 5.67473 87.9155 6.06363C88.4742 6.23863 88.8403 6.53031 88.9559 6.88031C89.0715 7.23032 88.9751 7.65811 88.6476 8.12479C88.2815 8.6498 87.8769 9.17481 87.4916 9.69982C87.1255 10.2054 86.7209 10.711 86.3741 11.236C85.43 12.5388 84.9098 14.0749 84.8905 15.6889C84.852 18.5473 84.4088 21.5418 83.484 25.1002C82.9253 27.2391 81.9041 29.3197 80.1316 31.8281C78.4361 34.2393 76.5286 36.5143 74.4285 38.556C74.178 38.8088 73.9468 39.0616 73.6964 39.3338C73.5808 39.47 73.4459 39.6061 73.311 39.7616L73.1184 39.9755L97.2407 49.4452L64.4289 40.1116L64.2748 40.5978L68.9567 42.3867C69.3613 42.5422 69.7852 42.6978 70.1898 42.8534C71.2302 43.2617 72.3091 43.6701 73.3688 44.0395C74.0432 44.2728 74.3129 44.584 74.2936 45.2062C74.2936 45.4201 74.3129 45.6534 74.3514 45.9062C74.3514 45.9451 74.3707 45.984 74.3707 46.0423L57.2038 41.6283L57.0689 42.095L114.832 60.9177L60.5948 46.7423Z" fill="#131413"/>
<path d="M7.99582 43.7475L8.05362 43.3975L7.72608 43.5141C7.22514 43.7086 6.7242 43.903 6.22325 44.078C5.04797 44.5058 3.93048 44.9142 2.87079 45.4781C2.00377 45.9253 1.29089 46.7809 0.674347 47.5392L0.597278 47.6364C0.231205 48.1226 0.0385341 48.7059 0 49.3282C0.019267 49.8143 0.231205 50.281 0.635812 50.5726C0.770682 50.6699 0.924818 50.6893 1.09822 50.6893C1.25236 50.6893 1.42576 50.6699 1.59916 50.631C1.71477 50.6115 1.83037 50.5921 1.9267 50.5921C2.02304 50.5921 2.10011 50.5532 2.17718 50.5337C2.23498 50.5143 2.29278 50.4948 2.33131 50.4948C3.4488 50.6893 3.94974 50.5726 4.46995 49.542C4.93236 48.6087 5.66451 48.1226 6.82053 47.9281C7.07101 47.8698 7.28294 47.6948 7.39854 47.4614L7.41781 47.4226C7.57195 46.567 7.70682 45.7114 7.86095 44.7197C7.89949 44.428 7.93802 44.0975 7.99582 43.7475ZM7.45635 44.6808C7.30221 45.6531 7.16734 46.4892 7.0132 47.3448C6.9554 47.4614 6.85907 47.5392 6.74347 47.5781C5.47184 47.792 4.64336 48.3559 4.10388 49.4059C3.68001 50.2421 3.37173 50.3198 2.38911 50.1448C2.25424 50.1254 2.13864 50.1643 2.04231 50.2032C1.98451 50.2226 1.9267 50.2421 1.88817 50.2421C1.77257 50.2421 1.65697 50.2615 1.54136 50.281C1.29089 50.3198 1.00189 50.3587 0.886284 50.281C0.597278 50.0476 0.423875 49.6976 0.404608 49.3476C0.423875 48.8226 0.597278 48.317 0.905551 47.8892L0.982619 47.792C1.61843 47.0337 2.25424 46.2559 3.06346 45.8281C4.10388 45.2836 5.2021 44.8753 6.37739 44.4475C6.76273 44.3114 7.16734 44.1558 7.57195 44.0003C7.51415 44.253 7.49488 44.4669 7.45635 44.6808Z" fill="#131413"/>
<path d="M79.3607 65.3904C75.7 64.4765 72.0007 63.5626 68.3593 62.6681C67.4344 62.4348 66.4711 62.182 65.5655 61.9487C63.4269 61.3848 61.1919 60.8014 58.9762 60.4125C55.6238 59.8097 52.175 59.3236 48.861 58.8569C47.4738 58.6625 46.048 58.468 44.6415 58.2542C43.736 58.118 42.8304 58.0014 41.9249 57.8653L40.4413 57.6514L40.4221 57.8458C40.4221 57.8847 40.4028 57.9236 40.4028 57.9625L40.3643 58.1569L80.9214 66.2654L80.1892 65.721C79.9388 65.5654 79.6498 65.4293 79.3607 65.3904ZM45.5856 58.7792C46.6646 58.9347 47.7435 59.0903 48.8032 59.2458C52.1172 59.7125 55.5467 60.1986 58.9184 60.8014C61.1149 61.1903 63.3306 61.7737 65.4692 62.3376C66.394 62.5709 67.3381 62.8237 68.2822 63.057C70.3245 63.5626 72.4053 64.0682 74.4669 64.5932L45.5856 58.7792Z" fill="#131413"/>
<path d="M45.3352 56.7369C46.3756 56.873 47.4353 57.0091 48.4757 57.1452L49.6124 57.2813L49.6895 56.7758L28.2453 52.284L28.0526 52.2451L27.937 52.7701L28.1104 52.8285C28.6499 53.0035 29.1894 53.159 29.7288 53.334C30.9619 53.7229 32.2336 54.1313 33.5052 54.5007C33.8327 54.5979 34.1603 54.6952 34.4878 54.7924C35.8558 55.2007 37.2815 55.6285 38.7073 55.8813C40.2294 56.1535 41.79 56.3285 43.3121 56.5035C43.9672 56.5619 44.6608 56.6397 45.3352 56.7369ZM34.5841 54.4035C34.2566 54.3063 33.9291 54.209 33.6015 54.1118C32.5804 53.8202 31.54 53.4896 30.5381 53.1785L46.0288 56.4258C45.8168 56.4063 45.6049 56.3674 45.393 56.348C44.7186 56.2702 44.025 56.1924 43.3507 56.1146C41.8478 55.9396 40.2872 55.7646 38.7844 55.4924C37.3586 55.2202 35.9521 54.8118 34.5841 54.4035Z" fill="#131413"/>
<path d="M13.6219 46.0426C13.3522 45.9843 13.0824 45.9843 12.832 46.0232C12.62 46.0426 12.2347 46.1399 12.0613 46.4121C12.0035 46.5288 11.9264 46.7038 12.0228 46.976C12.1576 47.3649 12.5815 47.8316 12.9668 47.8899C13.988 48.0455 15.0477 48.1621 16.0688 48.2788C16.8395 48.376 17.6295 48.4538 18.4194 48.5705C19.2094 48.6871 19.9993 48.8232 20.77 48.9788C21.1168 49.0566 21.4829 49.1149 21.8297 49.1733L22.0031 49.2121L22.1572 48.5705L20.1727 47.9871C18.0341 47.3454 15.8184 46.6843 13.6219 46.0426ZM20.8278 48.5899C20.0571 48.4343 19.2479 48.2788 18.4579 48.1816C17.668 48.0843 16.878 47.9871 16.1074 47.8899C15.0862 47.7732 14.0458 47.6566 13.0246 47.501C12.832 47.4621 12.5044 47.1316 12.3888 46.8399C12.3503 46.7038 12.3696 46.6454 12.3888 46.626C12.4466 46.5288 12.6393 46.451 12.8898 46.4121C12.9861 46.3926 13.0824 46.3926 13.1788 46.3926C13.2944 46.3926 13.41 46.4121 13.5256 46.4315C15.7028 47.0732 17.9185 47.7343 20.0764 48.3566L20.9241 48.6094C20.8856 48.5899 20.8663 48.5899 20.8278 48.5899Z" fill="#131413"/>
<path d="M6.62767 29.242L6.56987 29.2614C6.3772 29.3587 6.33867 29.6114 6.30013 29.9226C6.28087 30.0587 6.2616 30.1948 6.24233 30.3309L6.146 30.7393L8.59291 29.4364L8.36171 29.242C7.70663 28.6975 7.09008 29.0087 6.62767 29.242Z" fill="#131413"/>
<path d="M13.8914 24.2061C13.1207 24.2255 12.0803 24.8866 11.6178 25.6839L11.3096 26.1894L12.35 25.7616C13.0821 25.47 13.5253 25.3922 13.795 25.5478C14.0648 25.6839 14.2767 26.0728 14.4694 26.7922C14.6235 27.3756 14.662 27.9978 14.6813 28.5812C14.7006 28.8534 14.7198 29.1256 14.7391 29.3978L14.7969 29.884L15.1052 29.4951C16.0878 28.2117 15.8566 25.5672 14.662 24.4977C14.4501 24.3227 14.1804 24.2255 13.8914 24.2061ZM15.1052 28.6978C15.1052 28.6589 15.1052 28.6006 15.1052 28.5617C15.0666 27.9395 15.0281 27.2978 14.874 26.695C14.6428 25.8394 14.3923 25.3922 13.9877 25.1977C13.8336 25.12 13.6601 25.0811 13.4675 25.0811C13.1977 25.0811 12.8702 25.1589 12.4463 25.3144C12.8895 24.9255 13.4675 24.6338 13.8914 24.6144C14.084 24.6338 14.2767 24.6922 14.4116 24.8283C15.2786 25.5866 15.5676 27.4922 15.1052 28.6978Z" fill="#131413"/>
</g>
<defs>
<clipPath id="clip0">
<rect width="119.167" height="69.8266" fill="white" transform="translate(0 5.5)"/>
</clipPath>
</defs>
</svg>
