<svg width="366" height="590" viewBox="0 0 366 590" fill="none" xmlns="http://www.w3.org/2000/svg">
<g opacity="0.4">
<g clip-path="url(#clip0)">
<path d="M942.86 444.756C943.013 444.451 943.013 443.993 943.166 443.688L454.547 286.024C454.547 285.719 454.7 285.566 454.7 285.261L591.599 320.06C591.293 316.549 590.682 313.955 590.682 311.513C590.682 305.56 587.779 302.813 582.278 300.982C570.514 297.013 558.902 292.434 547.29 288.008C535.372 283.582 523.455 279.003 511.537 274.577C511.69 274.272 511.69 273.966 511.843 273.661L792.21 353.027C792.363 352.722 792.363 352.417 792.516 352.112L582.431 270.456C585.792 266.946 588.39 263.893 591.293 261.146C608.1 244.815 623.226 227.11 636.671 208.031C648.283 191.548 658.367 174.301 663.409 154.612C669.826 130.344 674.257 105.619 674.563 80.435C674.716 68.0722 678.688 56.1673 686.022 46.2465C691.828 38.0046 698.245 30.2207 704.051 21.9788C710.01 13.5843 707.413 6.4108 697.328 3.35825C688.314 0.305703 678.383 1.67935 670.438 7.17393C657.603 16.1789 646.755 27.626 644.311 43.6519C642.172 58.6093 640.797 73.7194 640.491 88.8296C639.421 117.981 635.296 146.217 620.628 171.859C606.266 196.584 588.848 219.479 569.138 240.083C557.221 252.599 543.776 257.788 527.427 255.499C509.398 253.057 491.369 249.851 473.493 246.341C424.753 237.183 376.013 227.72 327.426 218.258C323.912 217.494 320.704 215.663 318.106 213.068C314.134 208.489 308.786 205.284 302.98 203.911C298.855 202.995 294.882 201.469 290.757 200.095C278.992 196.279 267.227 192.463 255.31 188.648C255.31 188.495 255.463 188.343 255.463 188.19L408.71 223.752C408.863 223.294 409.016 222.684 409.168 222.226L257.296 173.69C257.449 173.385 257.449 172.927 257.602 172.622L288.923 177.353C282.506 171.859 275.478 167.891 268.908 163.312C262.338 158.733 255.157 156.291 247.518 157.207C234.531 158.885 221.543 161.633 208.556 163.617C205.959 164.075 202.445 164.075 200.611 162.549C186.402 151.254 170.359 147.133 152.483 149.88C142.552 151.407 132.926 150.796 124.064 144.539C120.703 142.402 117.189 141.028 113.369 140.112C104.202 137.67 98.8539 140.112 93.3535 147.744C91.9784 149.423 89.9921 150.491 87.8531 150.796C71.5047 152.323 57.6009 159.038 45.3777 169.722C41.8636 172.927 39.8773 176.59 41.4052 181.627C42.6275 185.595 41.2524 188.953 37.8911 191.853C34.0713 195.516 30.5572 199.332 27.1958 203.3C24.1401 206.81 24.4456 209.863 27.1958 213.679C32.5435 221.157 37.5855 228.789 42.6275 236.42C45.5305 240.846 49.3502 242.067 54.2395 240.236C55.9202 239.778 57.4481 238.862 58.8232 237.794C65.8515 231.078 72.727 231.383 80.5192 236.725C88.1587 241.915 95.7981 240.694 103.132 235.047C111.535 228.789 125.898 233.215 130.023 242.831C136.44 257.788 143.163 272.593 149.733 287.55C149.885 287.703 149.427 288.161 149.58 288.008C140.718 287.703 131.856 287.856 123.147 287.245C113.98 286.635 104.965 284.956 95.7981 284.956C85.2557 284.956 75.63 288.771 70.2823 298.539C67.5321 303.729 65.5459 309.223 64.3236 314.871C60.1983 331.049 63.7124 345.701 74.2549 358.522C79.6025 364.932 91.52 364.322 93.2007 357.148C95.187 348.906 99.9234 340.359 92.1312 331.66C85.8668 324.639 90.4505 314.871 99.7706 313.039C103.59 312.123 107.563 312.276 111.23 313.192C128.495 318.381 145.607 324.333 163.025 329.37C180.902 334.407 199.236 338.528 217.265 343.107C222.002 344.328 224.599 343.259 224.905 337.765C225.516 327.233 226.738 316.855 227.502 306.476C227.808 301.592 227.808 296.708 227.961 291.977C231.78 305.408 235.753 318.839 232.85 332.728C232.086 336.544 233.919 338.223 236.975 339.138C253.629 343.87 269.978 349.975 286.937 352.875C343.316 362.338 399.848 370.732 456.38 379.432C463.256 380.5 470.131 381.416 477.007 382.484C477.007 382.179 477.159 381.721 477.159 381.416C422.461 367.527 367.763 353.638 313.064 339.749C328.801 340.97 344.386 342.954 359.97 345.091C374.333 347.075 388.542 348.754 403.362 346.007C415.28 344.022 427.35 343.412 439.421 344.328C468.909 345.854 492.897 358.217 510.009 382.79C516.273 391.795 522.385 400.647 527.885 410.11C534.761 421.71 544.692 429.341 556.915 434.225C562.263 436.515 567.763 438.346 573.417 439.72C593.126 443.993 612.989 447.962 632.852 451.625C641.408 453.151 649.505 456.814 656.228 462.461C673.799 476.961 687.55 494.818 701.148 512.828C708.94 523.207 717.191 533.28 725.747 543.048C730.025 548.085 737.97 547.017 740.568 541.675C742.86 536.943 743.318 532.059 740.415 527.175C739.498 525.649 738.123 523.97 738.276 522.596C739.04 516.949 735.984 513.591 732.164 510.081C728.039 506.265 724.219 501.992 719.941 498.329C702.829 483.219 689.383 464.445 680.674 443.23C679.452 440.941 677.313 439.262 674.869 438.346C641.866 424.915 608.864 411.789 575.861 398.51C573.722 397.595 571.736 396.831 569.597 395.916C569.75 395.61 569.902 395.153 569.902 394.847L847.978 464.445C846.756 463.072 845.228 462.156 843.395 461.698C766.389 436.82 689.536 411.942 612.378 387.521C603.058 384.621 597.863 380.5 598.016 370.732C598.016 366.611 595.571 365.238 592.21 364.169C572.653 357.606 553.248 350.891 533.691 344.175L481.285 326.318C481.285 326.012 481.438 325.86 481.59 325.555L942.86 444.756ZM51.0309 195.363C51.7949 192.006 51.4893 188.495 52.7116 187.885C56.3785 186.053 60.6566 183.764 65.3931 187.732L51.0309 195.363ZM118.564 187.579C117.953 180.864 118.105 173.538 116.272 166.822C113.063 154.612 108.938 152.933 97.326 157.664C96.1037 158.122 94.8814 158.58 93.3535 159.191C96.7148 153.696 104.507 148.507 110.16 148.354C111.994 148.507 113.827 149.117 115.202 150.491C124.217 158.275 125.745 178.269 118.564 187.579Z" fill="#2BA55D"/>
<path d="M5.95847 331.812C3.36106 335.322 1.83317 339.748 1.52759 344.175C1.68038 347.532 3.20827 350.738 5.80568 352.722C7.94473 354.095 11.7645 352.874 14.8202 352.722C16.0425 352.569 17.2649 351.653 18.3344 351.959C26.7378 353.332 29.9463 352.569 33.6133 345.243C37.8914 336.849 44.6141 333.186 53.3231 331.659C54.8509 331.354 56.0733 330.286 56.8372 328.912C58.5179 320.06 59.893 311.055 61.7265 300.065C48.281 305.255 35.294 309.223 23.3764 315.328C16.6537 318.839 11.1533 325.707 5.95847 331.812Z" fill="#2BA55D"/>
<path d="M541.789 450.098C517.038 444.146 492.591 436.82 467.534 432.393C429.795 425.678 391.751 420.946 353.859 415.452C343.317 413.926 332.774 412.399 322.232 410.873C322.232 411.178 322.079 411.484 322.079 411.789L634.991 473.908C633.157 472.687 631.171 471.771 629.032 471.313C599.849 464.445 570.819 457.272 541.789 450.098Z" fill="#2BA55D"/>
<path d="M392.056 404.615L392.209 403.7L223.53 368.748L223.225 369.969C237.434 374.395 251.643 378.974 266.006 383.095C279.604 387.063 293.202 391.337 306.953 393.932C324.371 397.137 341.942 398.51 359.512 400.647C370.513 401.868 381.208 403.242 392.056 404.615Z" fill="#2BA55D"/>
<path d="M101.91 319.602C98.8543 320.06 95.493 321.434 96.7153 324.944C97.632 327.539 100.535 330.744 102.98 331.202C117.342 333.338 131.704 334.56 146.066 336.544C155.233 337.765 164.248 339.749 173.262 341.275L173.874 338.986C151.872 332.575 129.87 326.012 107.716 319.602C105.883 319.297 103.896 319.297 101.91 319.602Z" fill="#2BA55D"/>
<path d="M118.564 187.426C117.953 180.711 118.106 173.385 116.272 166.669C113.064 154.459 108.938 152.78 97.3265 157.511C96.1042 157.969 94.8819 158.427 93.354 159.038C96.7154 153.543 104.508 148.354 110.161 148.201C111.994 148.354 113.828 149.117 115.203 150.338C124.217 158.275 125.745 178.269 118.564 187.426Z" fill="#237745"/>
<path d="M198.32 199.941C196.487 200.399 194.806 201.01 193.125 201.773C192.361 202.231 192.056 202.994 192.056 203.91C192.667 205.894 193.584 207.725 194.501 209.557C194.959 210.015 195.57 210.167 196.181 209.862C198.473 208.641 200.307 206.504 201.223 204.062C201.834 201.926 200.765 200.399 198.32 199.941Z" fill="#131413"/>
<path d="M179.833 185.748C181.514 185.443 183.194 185.137 184.875 184.527C185.639 184.374 186.25 183.764 186.556 183.153C187.32 181.779 186.709 180.101 185.333 179.337C184.111 178.574 182.736 177.811 181.208 177.353C181.208 177.353 181.055 177.201 180.903 177.201C179.833 176.743 178.611 177.353 178.152 178.422C177.541 179.49 177.083 180.558 176.777 181.779C176.013 184.985 176.319 185.443 179.833 185.748Z" fill="#131413"/>
<path d="M173.11 210.168C172.04 209.405 170.818 208.795 169.596 208.337C169.443 208.337 169.443 208.184 169.29 208.184C168.373 207.879 167.304 208.337 166.998 209.252C166.387 210.626 165.929 212.152 165.623 213.679C165.47 214.594 165.929 215.205 166.845 215.205C167.304 215.205 167.915 215.358 168.373 215.358V215.51C169.748 215.357 171.276 215.052 172.651 214.594C173.263 214.442 173.874 213.984 174.179 213.373C174.79 212.305 174.332 210.779 173.11 210.168Z" fill="#131413"/>
<path d="M162.567 189.868C161.192 190.479 159.97 191.242 158.9 192.31C158.442 192.921 158.289 193.684 158.595 194.447C159.512 195.821 160.581 197.042 161.803 198.11C162.262 198.263 162.873 198.263 163.331 197.958C164.401 196.279 165.318 194.447 165.929 193.531C166.234 190.326 164.706 188.953 162.567 189.868Z" fill="#131413"/>
<path d="M154.469 169.416C154.928 170.026 155.539 170.484 156.303 170.637C157.831 170.942 159.359 169.874 159.664 168.348C160.123 166.821 160.428 165.448 160.581 163.921C160.581 163.769 160.581 163.769 160.581 163.616C160.734 162.395 159.817 161.479 158.747 161.327C157.525 161.021 156.303 161.021 155.08 161.021C151.566 161.021 151.414 161.479 152.025 164.837C152.789 166.516 153.553 168.042 154.469 169.416Z" fill="#131413"/>
<path d="M139.343 190.479C142.399 189.868 143.316 187.884 141.941 186.205C141.024 185.137 139.955 184.068 138.579 183.305C137.815 183 137.052 183.153 136.44 183.611C135.371 184.832 134.454 186.358 133.69 187.731C133.69 188.342 133.843 188.8 134.301 189.105C136.288 189.716 138.274 190.174 139.343 190.479Z" fill="#131413"/>
<path d="M143.928 207.268C142.858 206.963 141.789 206.505 140.719 206.353C140.261 206.81 139.191 207.116 139.038 207.726C138.733 208.947 138.58 210.321 138.733 211.542C138.733 211.847 139.497 212.61 139.802 212.61C141.483 212.305 143.011 211.694 144.539 210.931C144.997 210.626 145.303 210.168 145.455 209.71C145.608 208.489 144.844 207.421 143.928 207.268Z" fill="#131413"/>
<path d="M139.955 229.094C138.885 228.788 137.816 228.33 136.746 228.178C136.288 228.636 135.219 228.941 135.066 229.551C134.76 230.772 134.607 232.146 134.76 233.367C134.76 233.672 135.524 234.435 135.83 234.435C137.51 234.13 139.038 233.52 140.566 232.757C141.024 232.451 141.33 231.993 141.483 231.536C141.636 230.467 141.024 229.399 139.955 229.094Z" fill="#131413"/>
<path d="M334.149 328.301C333.08 327.538 331.857 326.927 330.635 326.469C330.482 326.469 330.482 326.317 330.329 326.317C329.413 326.012 328.343 326.469 328.038 327.385C327.426 328.759 326.968 330.285 326.662 331.811C326.51 332.727 326.968 333.338 327.885 333.338C328.343 333.338 328.954 333.49 329.413 333.49V333.643C330.788 333.49 332.316 333.185 333.691 332.727C334.302 332.575 334.913 332.117 335.219 331.506C335.83 330.438 335.371 328.912 334.149 328.301Z" fill="#131413"/>
<path d="M357.526 264.961C356.151 265.572 354.929 266.335 353.859 267.403C353.401 268.014 353.248 268.777 353.554 269.54C354.47 270.914 355.54 272.135 356.762 273.203C357.22 273.356 357.832 273.356 358.29 273.05C359.36 271.371 360.276 269.54 360.887 268.624C361.193 265.419 359.665 264.045 357.526 264.961Z" fill="#131413"/>
<path d="M335.83 239.778C334.608 239.473 333.386 239.473 332.164 239.473C328.649 239.473 328.497 239.931 329.108 243.288C329.872 244.815 330.636 246.341 331.552 247.715C332.011 248.325 332.622 248.783 333.386 248.936C334.914 249.241 336.442 248.172 336.747 246.646C337.206 245.12 337.511 243.746 337.664 242.22C337.664 242.067 337.664 242.067 337.664 241.915C337.817 240.999 337.053 239.931 335.83 239.778Z" fill="#131413"/>
<path d="M316.426 268.777C319.482 268.166 320.399 266.182 319.023 264.503C318.107 263.435 317.037 262.366 315.662 261.603C314.898 261.298 314.134 261.451 313.523 261.908C312.454 263.129 311.537 264.656 310.773 266.029C310.773 266.64 310.926 267.098 311.384 267.403C313.37 268.166 315.357 268.471 316.426 268.777Z" fill="#131413"/>
<path d="M287.091 285.26C286.327 284.955 285.563 285.108 284.952 285.566C283.882 286.787 282.965 288.313 282.201 289.687C282.201 290.297 282.354 290.755 282.813 291.06C284.646 291.671 286.632 291.976 287.855 292.281C290.91 291.671 291.827 289.687 290.452 288.008C289.382 286.939 288.313 286.024 287.091 285.26Z" fill="#131413"/>
<path d="M316.732 296.402C315.968 296.097 315.204 296.249 314.593 296.707C313.523 297.928 312.606 299.455 311.843 300.828C311.843 301.439 311.995 301.897 312.454 302.202C314.287 302.812 316.273 303.118 317.496 303.423C320.552 302.812 321.468 300.828 320.093 299.149C319.176 298.233 318.107 297.165 316.732 296.402Z" fill="#131413"/>
<path d="M354.47 298.234C353.401 297.929 352.331 297.471 351.262 297.318C350.803 297.776 349.734 298.081 349.581 298.692C349.276 299.913 349.123 301.287 349.276 302.508C349.276 302.813 350.039 303.576 350.345 303.576C352.026 303.271 353.554 302.66 355.081 301.897C355.54 301.592 355.845 301.134 355.998 300.676C356.151 299.455 355.54 298.387 354.47 298.234Z" fill="#131413"/>
<path d="M282.812 336.543C281.743 336.237 280.673 335.78 279.604 335.627C279.145 336.085 278.076 336.39 277.923 337.001C277.617 338.222 277.465 339.595 277.617 340.816C277.617 341.122 278.381 341.885 278.687 341.885C280.368 341.579 281.895 340.969 283.423 340.206C283.882 339.901 284.187 339.443 284.34 338.985C284.493 337.764 283.729 336.695 282.812 336.543Z" fill="#131413"/>
<path d="M278.076 253.667C280.368 252.446 282.202 250.309 283.118 247.867C283.729 245.73 282.66 244.204 280.215 243.746C278.382 244.204 276.701 244.814 275.02 245.578C274.257 246.036 273.951 246.799 273.951 247.714C274.562 249.699 275.479 251.53 276.396 253.362C276.854 253.82 277.465 253.82 278.076 253.667Z" fill="#131413"/>
<path d="M276.701 215.662C277.465 214.289 276.854 212.61 275.479 211.847C274.256 211.083 272.881 210.32 271.353 209.71L271.201 209.557C270.131 209.099 268.909 209.71 268.45 210.778C267.839 211.847 267.381 212.915 267.075 214.136C266.158 217.494 266.464 217.799 269.978 218.257C271.659 217.952 273.34 217.646 275.02 217.036C275.631 216.883 276.243 216.273 276.701 215.662Z" fill="#131413"/>
<path d="M307.412 219.783C306.189 219.02 304.814 218.257 303.286 217.646L303.134 217.494C302.064 217.036 300.842 217.646 300.383 218.715C299.772 219.783 299.314 220.851 299.008 222.072C298.091 225.43 298.397 225.735 301.911 226.193C303.592 225.888 305.273 225.583 306.953 224.972C307.717 224.82 308.328 224.209 308.634 223.599C309.398 222.225 308.787 220.546 307.412 219.783Z" fill="#131413"/>
<path d="M257.144 271.676C257.755 270.455 257.297 268.929 256.227 268.319C255.158 267.555 253.935 266.945 252.713 266.487C252.56 266.487 252.56 266.334 252.407 266.334C251.491 266.029 250.421 266.487 250.115 267.403C249.504 268.776 249.046 270.303 248.74 271.829C248.588 272.745 249.046 273.355 249.963 273.355C250.421 273.355 251.032 273.508 251.491 273.508V273.661C252.866 273.508 254.394 273.203 255.769 272.745C256.227 272.745 256.838 272.287 257.144 271.676Z" fill="#131413"/>
<path d="M263.867 312.734C262.797 311.97 261.575 311.36 260.353 310.902C260.2 310.902 260.2 310.749 260.047 310.749C259.13 310.444 258.061 310.902 257.755 311.818C257.144 313.191 256.686 314.718 256.38 316.244C256.227 317.16 256.686 317.77 257.602 317.77C258.061 317.77 258.672 317.923 259.13 317.923V318.075C260.505 317.923 262.033 317.618 263.408 317.16C264.019 317.007 264.631 316.549 264.936 315.939C265.547 315.023 265.089 313.497 263.867 312.734Z" fill="#131413"/>
<path d="M250.727 238.252C251.797 236.573 252.714 234.741 253.325 233.826C253.477 230.62 251.95 229.399 249.963 230.163C248.588 230.773 247.366 231.536 246.296 232.605C245.838 233.215 245.685 233.978 245.991 234.741C246.908 236.115 247.977 237.336 249.199 238.404C249.811 238.71 250.269 238.557 250.727 238.252Z" fill="#131413"/>
<path d="M238.045 200.858C236.823 200.553 235.6 200.553 234.378 200.553C230.864 200.553 230.711 201.011 231.322 204.368C232.086 205.895 232.85 207.421 233.767 208.795C234.225 209.405 234.836 209.863 235.6 210.016C237.128 210.321 238.656 209.252 238.962 207.726C239.42 206.2 239.726 204.826 239.878 203.3C239.878 203.147 239.878 203.147 239.878 202.995C240.031 202.079 239.114 201.011 238.045 200.858Z" fill="#131413"/>
<path d="M215.585 231.535C215.585 232.146 215.738 232.604 216.196 232.909C218.03 233.52 220.016 233.825 221.238 234.13C224.294 233.52 225.211 231.536 223.836 229.857C222.919 228.788 221.849 227.72 220.474 226.957C219.71 226.651 218.946 226.804 218.335 227.262C217.266 228.788 216.349 230.162 215.585 231.535Z" fill="#131413"/>
<path d="M225.669 251.072C224.6 250.767 223.53 250.309 222.461 250.156C222.002 250.614 220.933 250.919 220.78 251.53C220.474 252.751 220.322 254.125 220.474 255.346C220.474 255.651 221.238 256.414 221.544 256.414C223.225 256.109 224.753 255.498 226.28 254.735C226.739 254.43 227.044 253.972 227.197 253.514C227.35 252.293 226.739 251.225 225.669 251.072Z" fill="#131413"/>
<path d="M221.85 273.051C220.78 272.745 219.711 272.287 218.641 272.135C218.183 272.593 217.114 272.898 216.961 273.508C216.655 274.729 216.502 276.103 216.655 277.324C216.655 277.629 217.419 278.392 217.725 278.392C219.405 278.087 220.933 277.477 222.461 276.714C222.92 276.408 223.225 275.95 223.378 275.493C223.531 274.272 222.767 273.203 221.85 273.051Z" fill="#131413"/>
<path d="M186.097 306.476C184.569 305.407 183.041 304.339 181.514 303.423C180.75 303.118 179.833 303.271 179.069 303.881C177.847 305.56 176.93 307.391 176.013 309.223C176.013 309.833 176.319 310.444 176.777 310.749C179.222 311.818 181.972 311.97 184.417 311.207C186.708 310.444 187.167 308.612 186.097 306.476Z" fill="#131413"/>
<path d="M105.73 295.792C104.202 294.724 102.674 293.655 101.146 292.74C100.382 292.434 99.4655 292.587 98.7015 293.197C97.4792 294.876 96.5625 296.708 95.6458 298.539C95.6458 299.15 95.9513 299.76 96.4097 300.066C98.8543 301.134 101.605 301.287 104.049 300.524C106.341 299.76 106.799 297.929 105.73 295.792Z" fill="#131413"/>
<path d="M72.5745 313.344C74.7135 312.581 75.1719 310.749 74.1024 308.612C72.5745 307.544 71.0466 306.476 69.5187 305.56C68.7548 305.255 67.838 305.407 67.0741 306.018C65.8518 307.697 64.935 309.528 64.0183 311.36C64.0183 311.97 64.3239 312.581 64.7823 312.886C67.3797 313.954 70.1299 314.107 72.5745 313.344Z" fill="#131413"/>
<path d="M77.617 346.464C76.0891 345.396 74.5612 344.327 73.0333 343.411C72.2694 343.106 71.3527 343.259 70.5887 343.869C69.3664 345.548 68.4497 347.38 67.533 349.211C67.533 349.822 67.8385 350.432 68.2969 350.738C70.7415 351.806 73.4917 351.959 75.9363 351.195C78.0754 350.432 78.6865 348.601 77.617 346.464Z" fill="#131413"/>
<path d="M93.8121 350.737C92.2842 349.669 90.7563 348.601 89.2284 347.685C88.4645 347.38 87.5478 347.532 86.7838 348.143C85.5615 349.822 84.6448 351.653 83.728 353.485C83.728 354.095 84.0336 354.706 84.492 355.011C86.9366 356.079 89.6868 356.232 92.1314 355.469C94.2705 354.706 94.8816 352.874 93.8121 350.737Z" fill="#131413"/>
<path d="M193.737 279.155C193.737 279.003 193.737 279.003 193.737 278.85C193.431 277.782 192.362 277.018 191.139 277.324C189.917 277.476 188.847 277.934 187.625 278.392C184.417 279.613 184.264 280.071 186.097 283.124C187.32 284.345 188.695 285.413 190.07 286.329C190.681 286.787 191.445 286.939 192.209 286.787C193.737 286.481 194.806 284.955 194.501 283.429C194.501 282.055 194.195 280.529 193.737 279.155Z" fill="#131413"/>
<path d="M161.957 288.618C161.957 288.466 161.957 288.313 161.804 288.313C161.498 287.397 160.429 286.787 159.512 287.092C157.984 287.55 156.456 288.008 155.081 288.618C154.928 288.618 154.776 288.771 154.776 288.771C154.317 289.229 154.164 289.992 154.623 290.45C154.928 290.908 155.234 291.366 155.387 291.671L155.234 291.824C156.303 292.892 157.373 293.808 158.595 294.571C159.054 295.029 159.818 295.181 160.429 295.029C161.804 294.876 162.721 293.655 162.568 292.281C162.568 291.213 162.415 289.839 161.957 288.618Z" fill="#131413"/>
<path d="M172.499 271.829C171.276 271.066 169.901 270.608 168.373 270.455C167.609 270.455 166.845 270.913 166.54 271.523C166.081 273.05 165.623 274.729 165.623 276.408C165.623 276.713 166.387 277.629 166.693 277.476C168.679 277.323 170.665 277.018 171.735 276.866C174.332 275.034 174.332 272.897 172.499 271.829Z" fill="#131413"/>
<path d="M185.944 248.478C185.18 250.004 184.416 251.53 183.805 253.209C183.5 253.972 183.5 254.735 183.958 255.499C184.722 256.872 186.403 257.483 187.778 256.872C189.153 256.262 190.528 255.651 191.903 254.888C191.903 254.888 192.056 254.888 192.056 254.735C193.125 254.125 193.431 252.904 192.82 251.836C192.361 250.767 191.598 249.699 190.834 248.783C188.847 245.883 188.389 245.883 185.944 248.478Z" fill="#131413"/>
<path d="M161.651 247.256C159.97 247.256 158.29 247.256 156.762 247.561C156.303 247.866 155.998 248.324 155.998 248.935C156.762 250.766 157.526 252.598 157.984 253.666C160.429 255.65 162.415 255.193 162.873 253.056C163.179 251.682 163.332 250.156 163.179 248.782C163.026 248.019 162.415 247.408 161.651 247.256Z" fill="#131413"/>
<path d="M185.486 225.889C183.805 225.889 182.125 225.889 180.597 226.194C180.138 226.499 179.833 226.957 179.833 227.568C180.597 229.399 181.361 231.231 181.819 232.299C184.264 234.283 186.25 233.825 186.708 231.688C187.014 230.315 187.167 228.789 187.014 227.415C186.861 226.652 186.25 226.041 185.486 225.889Z" fill="#131413"/>
<path d="M116.12 193.531C114.286 193.989 112.605 194.6 110.925 195.363C110.161 195.821 109.855 196.584 109.855 197.5C110.466 199.484 111.383 201.315 112.3 203.147C112.758 203.605 113.369 203.757 113.981 203.452C116.272 202.231 118.106 200.094 119.023 197.652C119.634 195.363 118.564 193.837 116.12 193.531Z" fill="#131413"/>
<path d="M84.4927 208.794C84.951 208.794 85.5622 208.947 86.0205 208.947V209.099C87.3956 208.947 88.9235 208.641 90.2986 208.183C90.9098 208.031 91.521 207.573 91.8265 206.962C92.4377 205.741 91.9793 204.215 90.9098 203.605C89.8403 202.842 88.618 202.231 87.3957 201.773C87.2429 201.773 87.2429 201.621 87.0901 201.621C86.1733 201.315 85.1038 201.773 84.7982 202.689C84.1871 204.063 83.7287 205.589 83.4231 207.115C83.1176 208.031 83.5759 208.641 84.4927 208.794Z" fill="#131413"/>
<path d="M53.323 226.652C52.2535 225.888 51.0312 225.278 49.8088 224.82C49.6561 224.82 49.6561 224.667 49.5033 224.667C48.5865 224.362 47.517 224.82 47.2114 225.736C46.6003 227.109 46.1419 228.636 45.8363 230.162C45.6835 231.078 46.1419 231.688 47.0586 231.688C47.517 231.688 48.1282 231.841 48.5865 231.841V231.994C49.9616 231.841 51.4895 231.536 52.8646 231.078C53.4758 230.925 54.0869 230.467 54.3925 229.857C55.0037 228.788 54.5453 227.262 53.323 226.652Z" fill="#131413"/>
<path d="M84.0339 166.669C84.6451 165.448 84.1867 163.921 83.1172 163.311C82.0476 162.548 80.8253 161.937 79.603 161.479C79.4502 161.479 79.4502 161.327 79.2974 161.327C78.3807 161.021 77.3112 161.479 77.0056 162.395C76.3945 163.769 75.9361 165.295 75.6305 166.821C75.4777 167.737 75.9361 168.347 76.8528 168.347C77.3112 168.347 77.9223 168.5 78.3807 168.5V168.653C79.7558 168.5 81.2837 168.195 82.6588 167.737C83.1172 167.584 83.7283 167.126 84.0339 166.669Z" fill="#131413"/>
<path d="M105.425 176.742C104.355 175.979 103.133 175.369 101.91 174.911C101.758 174.911 101.758 174.758 101.605 174.758C100.688 174.453 99.6186 174.911 99.313 175.827C98.7018 177.2 98.2435 178.727 97.9379 180.253C97.7851 181.169 98.2435 181.779 99.1602 181.779C99.6186 181.779 100.23 181.932 100.688 181.932V182.084C102.063 181.932 103.591 181.627 104.966 181.169C105.577 181.016 106.189 180.558 106.494 179.948C107.105 178.879 106.647 177.353 105.425 176.742Z" fill="#131413"/>
<path d="M239.42 169.264C238.351 168.501 237.128 167.89 235.906 167.432C235.753 167.432 235.753 167.28 235.6 167.28C234.684 166.974 233.614 167.432 233.309 168.348C232.697 169.722 232.239 171.248 231.933 172.774C231.781 173.69 232.239 174.301 233.156 174.301C233.614 174.301 234.225 174.453 234.684 174.453V174.606C236.059 174.453 237.587 174.148 238.962 173.69C239.573 173.538 240.184 173.08 240.49 172.469C240.948 171.401 240.49 170.027 239.42 169.264Z" fill="#131413"/>
<path d="M212.529 188.8V188.953C213.904 188.8 215.432 188.495 216.807 188.037C217.418 187.884 218.03 187.427 218.335 186.816C218.946 185.595 218.488 184.069 217.418 183.458C216.349 182.695 215.127 182.085 213.904 181.627C213.751 181.627 213.751 181.474 213.599 181.474C212.682 181.169 211.612 181.627 211.307 182.542C210.696 183.916 210.237 185.442 209.932 186.969C209.779 187.884 210.237 188.495 211.154 188.495C211.46 188.648 212.071 188.648 212.529 188.8Z" fill="#131413"/>
<path d="M46.142 207.421C46.6004 206.352 46.142 205.131 45.0725 204.674C44.1557 204.368 43.239 204.063 42.3223 203.758C41.8639 204.216 41.1 204.521 40.9472 205.131C40.6416 206.352 40.6416 207.726 40.6416 208.947C40.6416 209.252 41.2528 210.016 41.4055 210.016C42.7806 209.71 44.1557 209.1 45.3781 208.337C45.8364 208.031 45.9892 207.726 46.142 207.421Z" fill="#131413"/>
<path d="M99.6183 225.735C102.063 227.72 104.049 227.262 104.508 225.125C104.813 223.751 104.966 222.225 104.813 220.851C104.66 220.088 104.049 219.478 103.285 219.325C101.605 219.325 99.9239 219.325 98.396 219.63C97.9377 219.936 97.6321 220.394 97.6321 221.004C98.2432 222.988 99.16 224.82 99.6183 225.735Z" fill="#131413"/>
<path d="M136.135 302.355C135.524 302.202 134.607 301.592 133.996 301.897C132.774 302.355 131.704 303.118 130.787 304.034C130.482 304.186 130.329 305.255 130.635 305.407C131.857 306.476 133.385 307.391 134.913 308.155C136.593 308.765 137.816 307.391 137.357 305.56C137.052 304.491 136.593 303.423 136.135 302.355Z" fill="#131413"/>
<path d="M90.2985 319.449C89.9929 318.381 89.5345 317.313 89.0762 316.244C88.465 316.092 87.5483 315.481 86.9371 315.786C85.7148 316.244 84.6453 317.007 83.7285 317.923C83.423 318.076 83.2702 319.144 83.5757 319.297C84.7981 320.365 86.3259 321.281 87.8538 322.044C89.3817 322.655 90.7568 321.128 90.2985 319.449Z" fill="#131413"/>
<path d="M216.502 313.954C215.891 313.802 214.975 313.191 214.363 313.496C213.141 313.954 212.072 314.717 211.155 315.633C210.849 315.786 210.696 316.854 211.002 317.007C212.224 318.075 213.752 318.991 215.28 319.754C216.961 320.365 218.183 318.991 217.725 317.16C217.266 315.938 216.961 314.87 216.502 313.954Z" fill="#131413"/>
<path d="M5.95906 332.575C4.88953 334.101 3.82001 335.627 2.90328 337.154C2.5977 337.917 2.75049 338.833 3.36164 339.596C5.04232 340.817 6.87579 341.732 8.70926 342.648C9.32042 342.648 9.93157 342.343 10.2371 341.885C11.3067 339.443 11.4595 336.696 10.6955 334.254C9.93157 331.964 8.0981 331.506 5.95906 332.575Z" fill="#131413"/>
<path d="M34.6829 327.996C33.6134 329.522 32.5439 331.048 31.6272 332.575C31.3216 333.338 31.4744 334.253 32.0855 335.017C33.7662 336.238 35.5997 337.153 37.4331 338.069C38.0443 338.069 38.6554 337.764 38.961 337.306C40.0305 334.864 40.1833 332.117 39.4194 329.675C38.6554 327.385 36.822 326.927 34.6829 327.996Z" fill="#131413"/>
<path d="M48.2813 307.697C47.2118 309.224 46.1423 310.75 45.2255 312.276C44.92 313.039 45.0728 313.955 45.6839 314.718C47.3646 315.939 49.1981 316.855 51.0315 317.771C51.6427 317.771 52.2538 317.465 52.5594 317.008C53.6289 314.566 53.7817 311.818 53.0178 309.376C52.2538 307.087 50.4204 306.476 48.2813 307.697Z" fill="#131413"/>
<path d="M490.3 295.944L593.432 322.196L593.127 319.907C592.974 318.686 592.821 317.617 592.668 316.549C592.363 314.565 592.21 313.038 592.21 311.512C592.21 305.407 589.307 301.591 582.737 299.454C574.334 296.707 565.777 293.349 557.527 290.297C554.318 289.076 550.957 287.855 547.748 286.634L535.067 281.902L791.599 354.553L792.975 355.011L794.35 351.348L585.029 269.997C585.487 269.387 586.098 268.929 586.557 268.318C588.543 266.182 590.376 264.198 592.21 262.366C609.017 246.035 624.296 228.178 637.894 209.099C652.103 189.105 660.507 172.469 664.938 155.222C672.271 127.138 675.786 103.328 676.091 80.5869C676.244 68.5293 680.064 57.0823 687.245 47.3141C690.148 43.3458 693.203 39.2249 696.106 35.4092C699.162 31.4409 702.371 27.1673 705.274 23.0464C708.482 18.6202 709.399 14.194 708.177 10.531C706.802 6.71528 703.287 3.81536 697.94 2.13646C688.62 -1.52659 678.077 -0.000321731 669.827 5.64689C654.089 16.7887 645.38 28.9989 643.089 43.1932C640.95 58.1507 639.575 73.4134 639.269 88.5235C638.505 112.181 635.449 143.011 619.559 170.79C605.197 195.363 587.932 218.257 568.222 238.709C556.763 250.919 543.47 255.803 527.886 253.666C509.093 251.072 490.3 247.714 473.951 244.509C425.517 235.351 376.319 225.888 327.885 216.425C324.676 215.662 321.621 214.136 319.482 211.846C315.203 207.115 309.703 203.757 303.592 202.231C300.689 201.62 297.786 200.552 295.035 199.636C293.813 199.178 292.591 198.873 291.521 198.415L286.785 196.889L410.238 225.43L411.461 221.004L269.672 175.674L294.577 179.489L290.452 175.979C286.021 172.163 281.284 169.111 276.701 166.058C274.562 164.685 272.423 163.158 270.284 161.785C262.95 156.595 255.31 154.459 247.824 155.527C240.184 156.595 232.392 157.969 224.905 159.19C219.558 160.106 214.21 161.174 208.862 161.937C205.959 162.395 203.209 162.09 202.14 161.174C187.625 149.727 171.582 145.454 152.789 148.048C141.177 149.727 132.773 148.201 125.44 142.859C121.925 140.722 118.258 139.043 114.286 138.28C104.66 135.838 98.7015 138.127 92.5899 146.522C91.5204 147.896 89.8397 148.811 88.159 148.964C72.1162 150.49 57.9068 156.748 44.9198 168.195C40.3361 172.163 38.961 176.589 40.4889 181.626C41.4056 184.984 40.4889 187.579 37.4331 190.326C33.6134 193.989 29.9464 197.957 26.7379 201.926C23.3765 205.741 23.2237 209.71 26.5851 214.288C31.3215 220.851 35.9052 227.72 40.1833 234.283L42.0168 237.03C45.2253 242.067 49.9618 243.593 55.3094 241.456C57.1429 240.846 58.9763 239.93 60.5042 238.709C66.6158 232.909 72.7274 232.604 80.3668 237.793C88.159 243.135 96.4096 242.524 104.813 236.114C108.174 233.519 112.911 232.756 117.8 234.13C122.995 235.504 127.426 239.014 129.259 243.288C133.537 253.208 137.968 263.129 142.246 272.897C144.233 277.323 146.219 281.902 148.205 286.329C146.219 286.329 144.08 286.176 142.094 286.176C135.829 286.023 130.023 286.023 123.912 285.565C120.245 285.413 116.578 284.955 112.911 284.497C107.563 283.886 102.063 283.276 96.5624 283.276C84.1865 283.276 74.8664 288.16 69.6716 297.623C66.9214 302.965 64.7823 308.459 63.56 314.259C59.2819 330.896 62.7961 346.006 73.7969 359.284C77.0054 363.253 82.9642 365.084 88.159 363.863C91.9788 362.947 94.729 360.505 95.4929 357.148C95.7985 355.774 96.2569 354.4 96.7152 352.874C98.7015 346.006 101.146 338.069 94.1178 330.285C91.826 327.69 91.062 324.485 92.1316 321.433C93.3539 317.922 96.7152 315.175 100.841 314.259C104.355 313.496 108.174 313.496 111.536 314.412C119.328 316.701 127.12 319.296 134.607 321.738C143.927 324.791 153.706 327.843 163.331 330.59C175.402 333.948 187.777 337.001 199.695 339.901C205.654 341.274 211.613 342.801 217.571 344.327C219.558 344.785 222.461 345.243 224.447 343.716C225.975 342.495 226.891 340.511 227.044 337.611C227.35 331.659 227.961 325.706 228.572 319.907C229.031 315.48 229.336 310.901 229.794 306.323C229.947 304.949 229.947 303.728 229.947 302.354C232.545 312.275 234.073 322.043 231.933 332.117C231.017 336.39 232.85 339.138 237.128 340.359C242.018 341.732 247.06 343.411 251.949 344.785C263.408 348.295 275.173 352.111 287.243 354.095C328.496 361.116 370.666 367.526 411.308 373.784C426.434 376.073 441.56 378.363 456.686 380.805C461.423 381.568 466.006 382.178 470.743 382.942C472.882 383.247 475.174 383.552 477.313 383.857L478.84 384.01L479.452 380.042L333.538 343.411C342.706 344.48 351.72 345.701 359.818 346.769C373.111 348.6 388.237 350.585 403.668 347.685C415.433 345.701 427.503 345.243 439.421 346.006C469.215 347.685 492.439 360.353 508.787 383.857C514.899 392.71 521.163 401.715 526.663 411.025C533.386 422.472 543.165 430.561 556.457 435.751C561.805 438.04 567.458 440.024 573.264 441.398C589.46 444.908 611.003 449.334 632.852 453.303C641.102 454.676 649.047 458.339 655.465 463.834C672.883 478.181 686.481 495.733 700.079 513.896C707.107 523.206 714.899 532.974 724.831 544.269C726.97 546.711 730.026 548.084 733.081 548.084C733.54 548.084 733.998 548.084 734.456 547.932C737.818 547.474 740.721 545.49 742.249 542.59C745.152 536.943 744.999 531.448 742.096 526.564C741.943 526.259 741.638 525.953 741.485 525.495C741.026 524.732 740.11 523.511 740.262 522.901C741.179 516.49 737.512 512.522 733.693 509.164C731.859 507.486 729.873 505.501 728.192 503.822C726.053 501.686 723.914 499.549 721.622 497.412C704.663 482.607 691.217 463.681 682.814 442.924L682.661 442.772C681.133 440.177 678.841 438.193 676.091 437.124C650.117 426.593 623.532 415.909 597.863 405.683L583.043 399.731L852.715 467.039L849.354 463.224C847.979 461.545 845.992 460.476 844.006 460.018C826.283 454.371 808.712 448.571 790.988 442.924C732.623 424.151 672.424 404.615 612.989 385.842C603.058 382.789 599.544 378.668 599.697 370.579C599.697 365.237 596.182 363.558 592.821 362.49C578.153 357.605 563.333 352.569 548.971 347.532L510.773 334.406L942.708 445.824L944.236 446.129L944.694 444.603C944.847 444.298 944.847 443.84 945 443.535L945.458 442.161L490.3 295.944ZM480.521 323.722L479.452 327.385L547.748 350.737C562.11 355.621 576.931 360.811 591.599 365.695C594.96 366.763 596.488 367.831 596.335 370.884C596.182 382.636 603.669 386.605 611.767 389.047C671.202 407.82 731.554 427.203 789.766 446.129C800.156 449.487 810.393 452.845 820.782 456.203L570.514 393.778L569.139 393.473L567.764 397.289L571.125 398.662C572.5 399.273 574.028 399.883 575.403 400.494L596.335 408.888C622.004 419.114 648.436 429.798 674.563 440.329C676.702 441.093 678.383 442.619 679.452 444.45C688.161 465.666 701.912 484.897 719.178 500.007C721.469 501.991 723.608 504.128 725.595 506.264C727.428 508.096 729.262 509.927 731.248 511.759C734.762 514.964 737.512 517.864 736.748 522.901C736.443 524.58 737.512 526.259 738.429 527.632C738.582 527.938 738.887 528.243 739.04 528.548C741.485 532.516 741.485 536.79 739.04 541.521C737.971 543.505 735.984 544.879 733.693 545.184C731.095 545.49 728.498 544.574 726.817 542.437C717.039 531.143 709.246 521.527 702.218 512.217C688.467 493.902 674.869 476.197 657.145 461.545C650.27 455.745 642.019 451.929 633.157 450.403C611.461 446.435 589.918 442.008 573.722 438.498C568.222 437.124 562.722 435.293 557.374 433.003C544.693 428.119 535.372 420.335 529.108 409.651C523.608 400.188 517.191 391.031 511.079 382.331C494.119 358.063 469.979 344.785 439.421 343.106C435.601 342.801 431.934 342.648 428.115 342.648C419.711 342.648 411.308 343.411 402.904 344.785C387.931 347.685 373.111 345.701 359.971 343.869C345.761 341.885 329.26 339.748 312.912 338.527L312.453 341.58L457.756 378.515C457.297 378.515 456.839 378.363 456.381 378.363C441.254 376.073 426.128 373.631 411.002 371.342C370.36 365.084 328.191 358.674 286.938 351.653C275.173 349.669 263.408 346.006 252.102 342.495C247.212 340.969 242.17 339.443 237.128 337.917C234.378 337.153 233.614 335.932 234.073 333.338C236.976 319.143 233.003 305.254 229.183 291.976L226.28 282.055L225.975 292.128C225.975 293.655 225.975 295.181 225.822 296.707C225.822 299.912 225.669 303.27 225.516 306.628C225.211 311.207 224.752 315.786 224.294 320.212C223.683 326.012 223.225 332.117 222.766 337.917C222.613 339.901 222.155 341.274 221.391 341.732C220.627 342.343 219.099 342.343 217.113 341.732C211.154 340.206 205.195 338.832 199.237 337.306C187.319 334.406 174.943 331.354 162.873 327.996C153.247 325.248 143.621 322.196 134.301 319.143C126.662 316.701 118.87 314.107 111.077 311.817C107.105 310.749 102.827 310.749 98.8543 311.665C93.5067 312.733 89.3814 316.243 87.7007 320.822C86.3256 324.943 87.2423 329.369 90.2981 332.88C96.1041 339.443 94.2706 345.853 92.2843 352.569C91.826 354.095 91.3676 355.469 91.062 356.995C90.2981 359.895 87.7007 360.963 86.02 361.421C81.8947 362.337 77.311 360.963 74.8664 357.911C64.4768 345.395 61.2682 331.201 65.2407 315.633C66.463 310.138 68.4493 304.644 71.0467 299.76C76.8527 289.228 87.3951 287.092 95.1873 287.092C100.535 287.092 105.883 287.702 111.23 288.313C114.897 288.771 118.717 289.228 122.384 289.381C128.495 289.686 134.607 289.839 140.718 289.992C143.316 289.992 145.76 290.144 148.358 290.144L148.969 290.602L149.886 289.839C150.191 289.686 150.497 289.076 150.65 288.465L151.261 287.092H150.344C148.205 282.208 145.913 277.171 143.774 272.287C139.496 262.671 135.065 252.598 130.787 242.83C128.495 237.64 123.453 233.519 117.189 231.841C111.383 230.314 105.73 231.23 101.604 234.435C94.2706 240.082 87.3951 240.54 80.8252 236.114C71.9634 230.162 64.324 230.467 57.1429 237.183C55.9206 238.098 54.5455 238.861 52.8648 239.319C48.7395 240.846 45.6837 239.93 43.2391 236.114L41.4056 233.367C36.9747 226.651 32.5439 219.783 27.6546 213.22C25.21 209.862 25.21 207.42 27.6546 204.673C30.8632 200.705 34.5301 196.889 38.197 193.378C42.1696 189.868 43.5447 185.9 42.1696 181.474C40.9473 177.505 42.1696 174.3 45.6837 171.248C58.2124 160.258 71.8106 154.153 87.2423 152.78C89.8397 152.474 92.1316 151.253 93.8122 149.117C99.1599 141.638 103.896 139.806 112.3 142.096C115.967 142.859 119.328 144.232 122.384 146.217C130.329 152.016 139.343 153.695 151.872 151.864C169.748 149.269 185.027 153.39 198.778 164.227C201.376 166.363 206.112 165.906 207.946 165.6C213.293 164.837 218.794 163.769 224.141 162.853C231.628 161.479 239.267 160.106 246.907 159.19C253.63 158.274 260.505 160.258 267.228 164.99C269.367 166.516 271.659 167.89 273.798 169.416C276.701 171.4 279.756 173.384 282.659 175.521L255.616 171.4L254.546 175.368L390.681 218.867L255.005 187.426L253.63 187.121L252.56 190.326L290.299 201.468C291.521 201.773 292.591 202.231 293.813 202.689C296.716 203.605 299.619 204.673 302.675 205.283C308.328 206.657 313.217 209.71 317.037 213.983C319.787 216.73 323.301 218.715 327.121 219.478C375.555 228.941 424.753 238.404 473.187 247.561C489.536 250.614 508.482 254.124 527.275 256.719C543.929 259.008 557.985 253.819 570.361 240.693C590.224 219.936 607.642 196.889 622.157 172.163C638.505 143.775 641.408 112.486 642.325 88.3709C642.63 73.4134 643.853 58.3033 646.144 43.3458C648.284 29.9146 656.381 18.6202 671.66 7.9363C678.994 2.74697 688.62 1.37332 697.176 4.42587C701.607 5.79952 704.51 8.08893 705.427 10.8362C706.343 13.5835 705.579 16.9413 702.982 20.6044C700.079 24.7253 696.87 28.8462 693.815 32.9672C690.912 36.9355 687.703 40.9038 684.953 45.0247C677.466 55.2508 673.341 67.3083 673.188 79.9764C672.883 102.413 669.368 125.917 662.034 153.848C657.604 170.637 649.506 186.968 635.449 206.657C622.004 225.583 606.878 243.44 590.224 259.466C588.237 261.45 586.404 263.434 584.418 265.571C583.501 266.64 582.431 267.708 581.362 268.929L579.834 270.608L771.126 344.937L510.926 271.676L509.704 275.492L546.832 289.534C550.04 290.755 553.401 291.976 556.61 293.197C564.861 296.402 573.417 299.607 581.82 302.507C587.168 304.339 589.307 306.781 589.154 311.665C589.154 313.344 589.307 315.175 589.612 317.159C589.612 317.464 589.765 317.77 589.765 318.228L453.63 283.581L452.561 287.244L910.622 434.988L480.521 323.722Z" fill="#131413"/>
<path d="M63.4074 300.218L63.8658 297.471L61.2684 298.386C57.2959 299.913 53.3234 301.439 49.3508 302.813C40.0307 306.17 31.169 309.376 22.7656 313.802C15.8901 317.312 10.2369 324.028 5.34762 329.98L4.73646 330.743C1.83347 334.559 0.305578 339.138 0 344.022C0.152789 347.838 1.83347 351.501 5.04204 353.79C6.11156 354.553 7.33387 354.706 8.70897 354.706C9.93128 354.706 11.3064 354.553 12.6815 354.248C13.5982 354.095 14.515 353.943 15.2789 353.943C16.0428 353.943 16.654 353.638 17.2652 353.485C17.7235 353.332 18.1819 353.18 18.4875 353.18C27.3492 354.706 31.3217 353.79 35.4471 345.701C39.114 338.375 44.92 334.559 54.0873 333.033C56.0736 332.575 57.7542 331.201 58.671 329.37L58.8238 329.065C60.0461 322.349 61.1156 315.633 62.3379 307.849C62.6435 305.56 62.9491 302.965 63.4074 300.218ZM59.1293 307.544C57.907 315.175 56.8375 321.738 55.6152 328.454C55.1568 329.37 54.3929 329.98 53.4762 330.286C43.3921 331.964 36.8222 336.391 32.5441 344.633C29.1827 351.196 26.7381 351.806 18.9458 350.432C17.8763 350.28 16.9596 350.585 16.1956 350.89C15.7373 351.043 15.2789 351.196 14.9733 351.196C14.0566 351.196 13.1399 351.348 12.2231 351.501C10.2369 351.806 7.94503 352.111 7.02829 351.501C4.73646 349.669 3.36136 346.922 3.20857 344.175C3.36136 340.054 4.73646 336.085 7.18108 332.728L7.79224 331.964C12.8343 326.012 17.8763 319.907 24.2935 316.549C32.5441 312.276 41.253 309.07 50.5732 305.713C53.6289 304.644 56.8375 303.423 60.0461 302.202C59.5877 304.186 59.4349 305.865 59.1293 307.544Z" fill="#131413"/>
<path d="M629.338 470.091C600.308 462.918 570.973 455.744 542.096 448.723C534.762 446.892 527.122 444.908 519.941 443.076C502.982 438.65 485.258 434.071 467.688 431.019C441.102 426.287 413.753 422.472 387.473 418.809C376.473 417.282 365.166 415.756 354.013 414.077C346.831 413.009 339.65 412.093 332.469 411.025L320.705 409.346L320.552 410.872C320.552 411.177 320.399 411.482 320.399 411.788L320.093 413.314L641.714 476.96L635.908 472.686C633.922 471.465 631.63 470.397 629.338 470.091ZM361.499 418.198C370.055 419.419 378.612 420.64 387.015 421.861C413.295 425.524 440.491 429.34 467.229 434.071C484.647 437.124 502.218 441.703 519.177 446.129C526.511 447.96 533.998 449.945 541.485 451.776C557.68 455.744 574.181 459.713 590.53 463.834L361.499 418.198Z" fill="#131413"/>
<path d="M359.512 402.173C367.763 403.241 376.166 404.31 384.417 405.378L393.432 406.446L394.043 402.478L223.989 367.221L222.461 366.916L221.544 371.037L222.919 371.495C227.197 372.868 231.475 374.089 235.753 375.463C245.532 378.516 255.616 381.721 265.7 384.621C268.297 385.384 270.895 386.147 273.492 386.91C284.34 390.115 295.647 393.473 306.953 395.457C319.023 397.594 331.399 398.968 343.47 400.341C348.664 400.799 354.165 401.41 359.512 402.173ZM274.256 383.858C271.659 383.094 269.061 382.331 266.464 381.568C258.366 379.279 250.115 376.684 242.17 374.242L365.013 399.731C363.332 399.578 361.651 399.273 359.971 399.12C354.623 398.51 349.123 397.899 343.775 397.289C331.858 395.915 319.482 394.542 307.564 392.405C296.258 390.268 285.104 387.063 274.256 383.858Z" fill="#131413"/>
<path d="M108.022 318.228C105.883 317.77 103.744 317.77 101.758 318.075C100.077 318.228 97.0211 318.991 95.646 321.128C95.1877 322.043 94.5765 323.417 95.3404 325.554C96.41 328.606 99.7713 332.269 102.827 332.727C110.925 333.948 119.328 334.864 127.426 335.78C133.538 336.543 139.802 337.153 146.066 338.069C152.331 338.985 158.595 340.053 164.707 341.274C167.457 341.885 170.36 342.343 173.11 342.801L174.485 343.106L175.707 338.069L159.97 333.49C143.011 328.454 125.44 323.264 108.022 318.228ZM165.165 338.222C159.053 337.001 152.636 335.78 146.372 335.017C140.108 334.253 133.843 333.49 127.732 332.727C119.634 331.811 111.383 330.896 103.285 329.675C101.758 329.369 99.1602 326.775 98.2434 324.485C97.9379 323.417 98.0907 322.959 98.2434 322.806C98.7018 322.043 100.23 321.433 102.216 321.128C102.98 320.975 103.744 320.975 104.508 320.975C105.425 320.975 106.341 321.128 107.258 321.28C124.523 326.317 142.094 331.506 159.206 336.39L165.929 338.374C165.623 338.222 165.471 338.222 165.165 338.222Z" fill="#131413"/>
<path d="M52.5597 186.357L52.1013 186.51C50.5735 187.273 50.2679 189.257 49.9623 191.699C49.8095 192.767 49.6567 193.836 49.5039 194.904L48.74 198.109L68.1442 187.883L66.3107 186.357C61.1159 182.084 56.2267 184.526 52.5597 186.357Z" fill="#131413"/>
<path d="M110.161 146.827C104.049 146.98 95.7986 152.169 92.1316 158.427L89.687 162.395L97.9376 159.037C103.744 156.748 107.258 156.137 109.397 157.358C111.536 158.427 113.217 161.479 114.744 167.127C115.967 171.705 116.272 176.589 116.425 181.168C116.578 183.305 116.731 185.442 116.883 187.579L117.342 191.394L119.786 188.342C127.579 178.268 125.745 157.511 116.272 149.117C114.592 147.743 112.453 146.98 110.161 146.827ZM119.786 182.084C119.786 181.779 119.786 181.321 119.786 181.016C119.481 176.132 119.175 171.095 117.953 166.363C116.12 159.648 114.133 156.137 110.925 154.611C109.702 154.001 108.327 153.695 106.799 153.695C104.66 153.695 102.063 154.306 98.7016 155.527C102.216 152.474 106.799 150.185 110.161 150.032C111.689 150.185 113.217 150.643 114.286 151.711C121.162 157.664 123.453 172.621 119.786 182.084Z" fill="#131413"/>
</g>
</g>
<defs>
<clipPath id="clip0">
<rect width="945" height="548.085" fill="white"/>
</clipPath>
</defs>
</svg>
