<svg width="32" height="32" viewBox="0 0 32 32" fill="none" xmlns="http://www.w3.org/2000/svg">
<path d="M5.33333 0C2.37866 0 0 2.37863 0 5.33326V26.6666C0 29.6212 2.37866 32 5.33333 32H26.6666C29.6213 32 32 29.6212 32 26.6666V5.33326C32 2.37863 29.6213 0 26.6666 0H5.33333ZM25.2109 7.62241C25.9092 7.67885 26.1135 8.34298 25.9453 9.12232L22.8281 23.5599C22.6253 24.4988 21.9201 24.6148 21.0703 23.9948L16.6666 20.7812L14.2474 23.1171C13.8679 23.483 13.1627 23.5893 12.9531 22.9478L11.138 17.3826L6.84635 16.0285C5.19165 15.5058 6.37687 14.7645 6.93755 14.5468L24.3438 7.78896C24.6907 7.65441 24.9783 7.60607 25.211 7.62472L25.2109 7.62241ZM22.1224 10.6276C22.0166 10.6478 21.8978 10.6916 21.789 10.7602L11.9687 16.9842C11.9101 17.0194 11.8449 17.0144 11.9062 17.2029L13.4947 22.0778L13.8177 18.7652C13.8243 18.7012 13.827 18.6594 13.8983 18.5959L22.19 11.1533C22.6481 10.742 22.4391 10.5711 22.1222 10.6273L22.1224 10.6276Z" fill="#131413"/>
</svg>
