<svg width="48" height="48" viewBox="0 0 48 48" fill="none" xmlns="http://www.w3.org/2000/svg">
<path d="M7.99999 0C3.568 0 0 3.56794 0 7.99988V39.9999C0 44.4318 3.568 48 7.99999 48H40C44.432 48 48 44.4318 48 39.9999V7.99988C48 3.56794 44.432 0 40 0H7.99999ZM37.8164 11.4336C38.8637 11.5183 39.1703 12.5145 38.9179 13.6835L34.2421 35.3398C33.938 36.7482 32.8802 36.9221 31.6054 35.9922L25 31.1718L21.3711 34.6757C20.8018 35.2245 19.744 35.384 19.4297 34.4217L16.707 26.074L10.2695 24.0428C7.78747 23.2588 9.56531 22.1467 10.4063 21.8202L36.5157 11.6834C37.036 11.4816 37.4674 11.4091 37.8165 11.4371L37.8164 11.4336ZM33.1836 15.9414C33.025 15.9716 32.8468 16.0375 32.6836 16.1403L17.9531 25.4763C17.8651 25.5292 17.7673 25.5216 17.8593 25.8043L20.2421 33.1167L20.7265 28.1478C20.7365 28.0518 20.7405 27.9891 20.8475 27.8938L33.285 16.7299C33.9721 16.1131 33.6587 15.8567 33.1834 15.9409L33.1836 15.9414Z" fill="#FCFCFC"/>
</svg>
