<svg width="48" height="48" viewBox="0 0 48 48" fill="none" xmlns="http://www.w3.org/2000/svg">
<path fill-rule="evenodd" clip-rule="evenodd" d="M4 0C1.79086 0 0 1.79086 0 4V44C0 46.2091 1.79086 48 4 48H44C46.2091 48 48 46.2091 48 44V4C48 1.79086 46.2091 0 44 0H4ZM30.921 11.645C29.4544 11.2781 27.9104 11.3704 26.498 11.9095C25.0856 12.4486 23.8728 13.4084 23.0236 14.6593C22.2223 15.8398 21.7813 17.2257 21.7513 18.6486C20.1951 18.5064 18.675 18.0731 17.2715 17.3667C15.4315 16.4405 13.8491 15.0737 12.6652 13.3879C12.3546 12.9457 11.8302 12.7047 11.2924 12.7571C10.7545 12.8094 10.2864 13.147 10.0669 13.6408L11.4377 14.25C10.0669 13.6408 10.0666 13.6415 10.0663 13.6423L10.0655 13.644L10.0636 13.6484L10.0584 13.6603L10.0426 13.697C10.0298 13.7272 10.0124 13.7686 9.99133 13.8208C9.94911 13.925 9.89163 14.0722 9.8245 14.2578C9.69043 14.6287 9.51687 15.1557 9.34969 15.8022C9.01714 17.088 8.7 18.8838 8.79076 20.8806C8.88183 22.8841 9.38568 25.1209 10.7241 27.2342C11.6774 28.7394 13.0252 30.136 14.8668 31.3271C12.9867 32.1363 10.9394 32.5209 8.87227 32.4387C8.17819 32.4111 7.55595 32.8636 7.36838 33.5325C7.18081 34.2013 7.47697 34.9114 8.08419 35.2488C14.4052 38.7604 21.5078 38.7975 27.0721 35.8359C32.673 32.8547 36.5627 26.9155 36.5627 18.8438L36.5626 18.8388C36.562 18.6477 36.554 18.4568 36.5386 18.2665C37.798 16.8492 38.6946 15.1422 39.1451 13.2924C39.293 12.6849 39.0486 12.0494 38.5317 11.6975C38.0149 11.3457 37.334 11.3514 36.823 11.7118C35.937 12.3368 34.9761 12.846 33.9639 13.2281C33.0917 12.4719 32.0502 11.9276 30.921 11.645ZM11.7877 20.7444C11.7301 19.4771 11.8765 18.2883 12.0791 17.3067C13.2088 18.407 14.504 19.3323 15.9227 20.0464C18.2046 21.195 20.7352 21.7614 23.289 21.6951C24.102 21.6741 24.7502 21.0089 24.7502 20.1956V18.8831H24.7503L24.75 18.863C24.738 17.9659 25.0018 17.0866 25.5057 16.3443C26.0097 15.6019 26.7295 15.0322 27.5678 14.7123C28.406 14.3923 29.3224 14.3375 30.1928 14.5553C31.0632 14.7731 31.8458 15.253 32.4346 15.93C32.8218 16.3752 33.434 16.5521 33.9989 16.3819C34.0918 16.354 34.1844 16.3251 34.2767 16.2955C34.157 16.4294 34.0328 16.5597 33.9044 16.6864C33.5479 17.038 33.3903 17.5442 33.4843 18.036C33.5354 18.3031 33.5616 18.5744 33.5627 18.8463C33.5619 25.8669 30.233 30.755 25.6626 33.1876C22.478 34.8826 18.6176 35.4238 14.7238 34.5892C16.1746 34.1057 17.5615 33.4232 18.8426 32.5536C19.2932 32.2477 19.5427 31.7216 19.4942 31.1791C19.4458 30.6366 19.1071 30.163 18.6094 29.9418C15.8961 28.7359 14.252 27.1976 13.2586 25.6291C12.2592 24.051 11.8607 22.3503 11.7877 20.7444Z" fill="#FCFCFC"/>
</svg>
