<svg width="32" height="32" viewBox="0 0 32 32" fill="none" xmlns="http://www.w3.org/2000/svg">
<rect width="32" height="32" rx="4" fill="#131413"/>
<g clip-path="url(#clip0)">
<path d="M26.125 8.62501C25.2871 9.21605 24.3593 9.66811 23.3775 9.96376C22.8505 9.35783 22.1502 8.92837 21.3712 8.73345C20.5921 8.53852 19.7721 8.58756 19.0218 8.87391C18.2716 9.16026 17.6274 9.67011 17.1764 10.3345C16.7253 10.9989 16.4892 11.7858 16.5 12.5888V13.4638C14.9623 13.5036 13.4386 13.1626 12.0646 12.471C10.6907 11.7795 9.50903 10.7588 8.625 9.50001C8.625 9.50001 5.125 17.375 13 20.875C11.198 22.0982 9.05126 22.7116 6.875 22.625C14.75 27 24.375 22.625 24.375 12.5625C24.3742 12.3188 24.3508 12.0757 24.305 11.8363C25.198 10.9556 25.8282 9.84363 26.125 8.62501Z" stroke="#FCFCFC" stroke-width="2" stroke-linecap="round" stroke-linejoin="round"/>
</g>
<defs>
<clipPath id="clip0">
<rect width="21" height="21" fill="white" transform="translate(6 6)"/>
</clipPath>
</defs>
</svg>
